<mxfile host="app.diagrams.net" modified="2022-05-24T10:06:33.513Z" agent="5.0 (Windows NT 10.0; Win64; x64) AppleWebKit/537.36 (KHTML, like Gecko) Chrome/101.0.4951.67 Safari/537.36" etag="EkhJ_MWUAwZhe14mWxv6" version="18.0.4" type="github">
  <diagram id="_StbC1WLwwfifTCV5p0Q" name="Page-1">
    <mxGraphModel dx="504" dy="277" grid="1" gridSize="10" guides="1" tooltips="1" connect="1" arrows="1" fold="1" page="1" pageScale="1" pageWidth="827" pageHeight="1169" background="#ffffff" math="0" shadow="0">
      <root>
        <mxCell id="0" />
        <mxCell id="1" parent="0" />
        <mxCell id="ao2WHDM3aDO-dXOrU9lV-18" style="edgeStyle=orthogonalEdgeStyle;rounded=0;orthogonalLoop=1;jettySize=auto;html=1;exitX=1;exitY=0.5;exitDx=0;exitDy=0;entryX=0;entryY=0.25;entryDx=0;entryDy=0;fontSize=16;" edge="1" parent="1" source="ao2WHDM3aDO-dXOrU9lV-1" target="ao2WHDM3aDO-dXOrU9lV-17">
          <mxGeometry relative="1" as="geometry">
            <Array as="points">
              <mxPoint x="190" y="300" />
            </Array>
          </mxGeometry>
        </mxCell>
        <mxCell id="ao2WHDM3aDO-dXOrU9lV-1" value="" style="rounded=0;whiteSpace=wrap;html=1;fillColor=#E6D0DE;" vertex="1" parent="1">
          <mxGeometry x="30" y="200" width="160" height="240" as="geometry" />
        </mxCell>
        <mxCell id="ao2WHDM3aDO-dXOrU9lV-2" value="&lt;font style=&quot;font-size: 20px;&quot;&gt;物联网终端&lt;/font&gt;" style="text;html=1;strokeColor=none;fillColor=none;align=center;verticalAlign=middle;whiteSpace=wrap;rounded=0;" vertex="1" parent="1">
          <mxGeometry x="70" y="250" width="80" height="30" as="geometry" />
        </mxCell>
        <mxCell id="ao2WHDM3aDO-dXOrU9lV-5" value="" style="rounded=0;whiteSpace=wrap;html=1;fontSize=20;fillColor=#FFCCCC;" vertex="1" parent="1">
          <mxGeometry x="50" y="350" width="120" height="60" as="geometry" />
        </mxCell>
        <mxCell id="ao2WHDM3aDO-dXOrU9lV-4" value="区块链客户端" style="text;html=1;strokeColor=none;fillColor=none;align=center;verticalAlign=middle;whiteSpace=wrap;rounded=0;" vertex="1" parent="1">
          <mxGeometry x="70" y="365" width="80" height="30" as="geometry" />
        </mxCell>
        <mxCell id="ao2WHDM3aDO-dXOrU9lV-6" value="" style="rounded=0;whiteSpace=wrap;html=1;fontSize=20;fillColor=#ffe6cc;strokeColor=#d79b00;" vertex="1" parent="1">
          <mxGeometry x="670" y="200" width="90" height="240" as="geometry" />
        </mxCell>
        <mxCell id="ao2WHDM3aDO-dXOrU9lV-7" value="&lt;font style=&quot;font-size: 16px;&quot;&gt;物联网数据使用者&lt;/font&gt;" style="text;html=1;strokeColor=none;fillColor=none;align=center;verticalAlign=middle;whiteSpace=wrap;rounded=0;fontSize=20;" vertex="1" parent="1">
          <mxGeometry x="682.5" y="300" width="65" height="30" as="geometry" />
        </mxCell>
        <mxCell id="ao2WHDM3aDO-dXOrU9lV-8" value="物联网数据平台" style="rounded=0;whiteSpace=wrap;html=1;fontSize=16;" vertex="1" parent="1">
          <mxGeometry x="410" y="200" width="120" height="60" as="geometry" />
        </mxCell>
        <mxCell id="ao2WHDM3aDO-dXOrU9lV-9" value="" style="endArrow=classic;html=1;rounded=0;fontSize=16;exitX=1.016;exitY=0.126;exitDx=0;exitDy=0;exitPerimeter=0;entryX=0;entryY=0.5;entryDx=0;entryDy=0;" edge="1" parent="1" source="ao2WHDM3aDO-dXOrU9lV-1" target="ao2WHDM3aDO-dXOrU9lV-8">
          <mxGeometry width="50" height="50" relative="1" as="geometry">
            <mxPoint x="420" y="340" as="sourcePoint" />
            <mxPoint x="470" y="290" as="targetPoint" />
          </mxGeometry>
        </mxCell>
        <mxCell id="ao2WHDM3aDO-dXOrU9lV-11" value="上云" style="text;html=1;strokeColor=none;fillColor=none;align=center;verticalAlign=middle;whiteSpace=wrap;rounded=0;fontSize=16;" vertex="1" parent="1">
          <mxGeometry x="320" y="200" width="60" height="30" as="geometry" />
        </mxCell>
        <mxCell id="ao2WHDM3aDO-dXOrU9lV-13" value="" style="endArrow=classic;html=1;rounded=0;fontSize=16;exitX=1.016;exitY=0.126;exitDx=0;exitDy=0;exitPerimeter=0;entryX=0;entryY=0.5;entryDx=0;entryDy=0;" edge="1" parent="1">
          <mxGeometry width="50" height="50" relative="1" as="geometry">
            <mxPoint x="540" y="229.24" as="sourcePoint" />
            <mxPoint x="657.44" y="229" as="targetPoint" />
          </mxGeometry>
        </mxCell>
        <mxCell id="ao2WHDM3aDO-dXOrU9lV-23" style="edgeStyle=orthogonalEdgeStyle;rounded=0;orthogonalLoop=1;jettySize=auto;html=1;exitX=1;exitY=0.25;exitDx=0;exitDy=0;entryX=-0.027;entryY=0.542;entryDx=0;entryDy=0;entryPerimeter=0;fontSize=12;" edge="1" parent="1" source="ao2WHDM3aDO-dXOrU9lV-15" target="ao2WHDM3aDO-dXOrU9lV-6">
          <mxGeometry relative="1" as="geometry" />
        </mxCell>
        <mxCell id="ao2WHDM3aDO-dXOrU9lV-15" value="" style="whiteSpace=wrap;html=1;aspect=fixed;fontSize=16;fillColor=#dae8fc;strokeColor=#6c8ebf;" vertex="1" parent="1">
          <mxGeometry x="520" y="310" width="80" height="80" as="geometry" />
        </mxCell>
        <mxCell id="ao2WHDM3aDO-dXOrU9lV-16" value="区块链节点" style="whiteSpace=wrap;html=1;aspect=fixed;fontSize=16;fillColor=#dae8fc;strokeColor=#6c8ebf;" vertex="1" parent="1">
          <mxGeometry x="500" y="330" width="80" height="80" as="geometry" />
        </mxCell>
        <mxCell id="ao2WHDM3aDO-dXOrU9lV-22" style="edgeStyle=orthogonalEdgeStyle;rounded=0;orthogonalLoop=1;jettySize=auto;html=1;exitX=1;exitY=0.5;exitDx=0;exitDy=0;entryX=0;entryY=0.25;entryDx=0;entryDy=0;fontSize=12;" edge="1" parent="1">
          <mxGeometry relative="1" as="geometry">
            <mxPoint x="360" y="315" as="sourcePoint" />
            <mxPoint x="520" y="315" as="targetPoint" />
          </mxGeometry>
        </mxCell>
        <mxCell id="ao2WHDM3aDO-dXOrU9lV-17" value="区块链网关" style="rounded=0;whiteSpace=wrap;html=1;fontSize=16;fillColor=#d5e8d4;strokeColor=#82b366;dashed=1;" vertex="1" parent="1">
          <mxGeometry x="300" y="270" width="60" height="120" as="geometry" />
        </mxCell>
        <mxCell id="ao2WHDM3aDO-dXOrU9lV-19" value="&lt;font style=&quot;font-size: 12px;&quot;&gt;间接上链&lt;/font&gt;" style="text;html=1;strokeColor=none;fillColor=none;align=center;verticalAlign=middle;whiteSpace=wrap;rounded=0;fontSize=16;" vertex="1" parent="1">
          <mxGeometry x="210" y="270" width="70" height="30" as="geometry" />
        </mxCell>
        <mxCell id="ao2WHDM3aDO-dXOrU9lV-21" style="edgeStyle=orthogonalEdgeStyle;rounded=0;orthogonalLoop=1;jettySize=auto;html=1;exitX=0.5;exitY=1;exitDx=0;exitDy=0;fontSize=12;" edge="1" parent="1" source="ao2WHDM3aDO-dXOrU9lV-17" target="ao2WHDM3aDO-dXOrU9lV-17">
          <mxGeometry relative="1" as="geometry" />
        </mxCell>
        <mxCell id="ao2WHDM3aDO-dXOrU9lV-24" value="" style="endArrow=classic;html=1;rounded=0;fontSize=12;entryX=0;entryY=1;entryDx=0;entryDy=0;" edge="1" parent="1" target="ao2WHDM3aDO-dXOrU9lV-16">
          <mxGeometry width="50" height="50" relative="1" as="geometry">
            <mxPoint x="191" y="410" as="sourcePoint" />
            <mxPoint x="40" y="330" as="targetPoint" />
            <Array as="points">
              <mxPoint x="280" y="410" />
            </Array>
          </mxGeometry>
        </mxCell>
        <mxCell id="ao2WHDM3aDO-dXOrU9lV-25" value="&lt;font style=&quot;font-size: 12px;&quot;&gt;直接上链&lt;/font&gt;" style="text;html=1;strokeColor=none;fillColor=none;align=center;verticalAlign=middle;whiteSpace=wrap;rounded=0;fontSize=16;" vertex="1" parent="1">
          <mxGeometry x="210" y="380" width="70" height="30" as="geometry" />
        </mxCell>
        <mxCell id="ao2WHDM3aDO-dXOrU9lV-26" value="阿里云物联网平台" style="ellipse;shape=cloud;whiteSpace=wrap;html=1;dashed=1;fontSize=12;fillColor=#E6D0DE;" vertex="1" parent="1">
          <mxGeometry x="400" y="50" width="120" height="80" as="geometry" />
        </mxCell>
        <mxCell id="ao2WHDM3aDO-dXOrU9lV-27" value="" style="curved=1;endArrow=classic;html=1;rounded=0;fontSize=12;entryX=0.5;entryY=1;entryDx=0;entryDy=0;entryPerimeter=0;" edge="1" parent="1" target="ao2WHDM3aDO-dXOrU9lV-26">
          <mxGeometry width="50" height="50" relative="1" as="geometry">
            <mxPoint x="440" y="200" as="sourcePoint" />
            <mxPoint x="490" y="140" as="targetPoint" />
            <Array as="points">
              <mxPoint x="490" y="190" />
              <mxPoint x="440" y="140" />
            </Array>
          </mxGeometry>
        </mxCell>
        <mxCell id="ao2WHDM3aDO-dXOrU9lV-28" value="" style="shape=image;verticalLabelPosition=bottom;labelBackgroundColor=default;verticalAlign=top;aspect=fixed;imageAspect=0;image=data:image/png,iVBORw0KGgoAAAANSUhEUgAAAykAAAGOCAYAAACT7EwVAAAgAElEQVR4nOzdd5wc1Z3u/8+p6tw9UaMZpVHOOScEGDBgbO9iY7x4bS82Dvuz195g+7fee9cbvL6b7subHNZhg8HGOQe8YDDBJBEkIQnlnMOMJnROVXXuHy0QAkmMUGpJz5vXQE9XdXdNa2jVU+f7PcdYay0iIiIiIiJ1wrnQByAiIiIiIvJSCikiIiIiIlJXFFJERERERKSuKKSIiIiIiEhdUUgREREREZG6opAiIiIiIiJ1RSFFRERERETqikKKiIiIiIjUFYUUERERERGpKwopIiIiIiJSVxRSRERERESkriikiIiIiIhIXVFIERERERGRuqKQIiIiIiIidUUhRURERERE6opCioiIiIiI1BWFFBERERERqSsKKSIiIiIiUlcUUkREREREpK4opIiIiIiISF1RSBERERERkbqikCIiIiIiInVFIUVEREREROqKQoqIiIiIiNQVhRQREREREakrCikiIiIiIlJXFFJERERERKSuKKSIiIiIiEhdUUgREREREZG6opAiIiIiIiJ1RSFFRERERETqikKKiIiIiIjUFYUUERERERGpKwopIiIiIiJSVxRSRERERESkriikiIiIiIhIXVFIERERERGRuqKQIiIiIiIidUUhRURERERE6kroQh+AXDzu2LLouO/vnPi0tmu7tmu7tmu7tp/j7SKXI42kyIC8/ANURERERORcMdZae6EPQurfCyFFV3dERM6+km95ttsMaN9hCRjXeOz7f1kLSztgcUft+1VHLPfsNvyv2ZaIO7DnlPqkv3vlcqZyLxkQfUCKyKXGDyyPHKydxL9uqMV1jp3QLz8MBQ/mtVnW9hqqwbHHJUMwqdnSEj0+AATWsrIb1vaCARa0G2a0DuxYuouGT94/sGuG108xfGZB7fbeHPxwtWX0lceO5QtrDVsOWI4UAWrP+fFZhtENAzsWEZF6oJAiIiKXJdcx/PMKS18aPnuDYdmQ2v09JfjE/RZj4N7fgb961FIuH/9YY+CWmfD/z6p9fyAPH3vMsKfrWND4TywLxsK/LuW4AHQq/3SDYW6b5VDRkK7ApKba8+3OGRIh+OPfHL//3VsgnoDfGmUBw7e3waZ9ljmjoSli2NwLB3ossbmv5R0SEblw1JMiIiKXratG1sLDfXuO3XffXrAWJg4zNEaOhYuPLzP8/esNf7TUEIvBj9ZYnjpcG0H5yCOwp8syexT8/esNf32NYVAzPLsDPr9u4CVXlaMjNr/cDX/1pMU1EA8ZPvsc/Ntay0uzTjWwPLDN8t6Zhr9bZbjjIfj35ZZoFDJlw+2T4HDa8v75MCRxRm+TiMh5p5EUERG5bL1pFPzseVi+x8LCWgJ44GhgecOo4/dd1A4jU7XbW/oN922wrOmBIyXDoR5LR6vhy1cf239Ck+FTy+FAvjbKMRCffdYystngGMvYVnjLPfA3Syw7j8D7Zxt29x/b95/WGCply+ojlqd3wl9fbegdZbhmGLzjHssd98CYDsMdk17jmyMXnEqt5XKmkRQZkDu2LNIMXyJyyZnRCg0pKBTguSOWbMWy9aDFceANnSfuEekqwnOHareHJWFdb+32lZ3H7zeuEb57I3x2ycBHUj4407DxoGX1bpjfbljWafjTR6BYhIXtx+/bmYLpnYbn9sOINsP1I2BuG/zDKku5VNtnf5/lc89DX1lz5IjIxUUhRURELmtXHC35uneP4f59hiCACUMNTZHjw8Xv/sRyxd2Wm39gOdxraW+FmzotPaVaAGiKnPmxjExZ/nChwVpoicInZ1takoZwGCY0Hb/vuyfAH86EShn+ciF8Zxu852eWDV3wZ1cZHrgNbpli+PF6y2//CPbkzvz4RETOlwtW7pWvBKzoKrOpr8Lk1gjz26Mkw8pMIiJyfr1plOW+DfDYHsuuTC2YvLzUC2DqCEM8bEmEDJNbLO8YDyHHMKoBHseyM3v8/v1ly2dWQiJk+NuFAz+eld214rDPrbBcNQQqvqVarfXKvNThIvzZY5Yhgwx3bbIUPVg4DvqKhp9uh59ur/0sQ5oN1448VqomInIxuCAhxQssv9pT4Kurc/TnHFoayvzBHMubxyQY4AQoIiIiZ8W8NojHoT8DmWytOf2mka/sI/nLBTAy9cJ9x7ZdPQy+vQoe32HZP80wPFm7/9vbDMu3WSYMG/ixdJcMj22z3D7f8NMtlk88aejrr83W9dmnLbHIsdf+yU7oS4PbakmGDW8bCzuy8KWnLTdNqe2Tr8LD+yyLF+gv14uR1kmRy9kFCSlF37Ktr0JfX4HAh74qbO5xuXZElFTEvRCHJK9CH5AicqkyxrBkFDy0yRIcndXrdEq3ZrTC0vHwxDZ49y8tCzoN+3Ow86DFAB+eMfDn+u4WiMXgfZMsbxltuON+y8Jx8I+L4eNPwO6+Y/u+a7zlHeOgOWrYmYUV3bX7QyH41NEphw8V4OHNA399EZF6cUFCSm2Re3vcNSoLBCfZX0RE5Fy6aSQ8tKl2+8bRp//4/7sYPp8y/HSD5bGttR6VRAI+tsCwpGPgz/OmMRB2DBEXWqKWhpjhk7MhbCyfWwa//fNj+67vM3xzi2XDIUuxWJsA4L0zDb4P/7Wxtk+mevo/i4hIPdAUxCIictlbNgSW337ikqhHbnv1UinXMXxsJnxspmFPDkKmNvPX6RrbYJk3uPZ6UdfwrRssYcfwwD7DXz9kscCMmbV9t2cgVzG8YzpcNRQmN8O3t0Hgwy931PbxAs3qJSIXJ2NrwxrnVaEa8JW1/XzvuTS+Z3FDhtvmNPGhmc0k1DwvIiKXmULVcs8ew3XDYVDsldtLvmX5YcPQRC2MnMzhIuzOWha214JOxbc8222YPajWtyIicrE4ryGl6AV0FXx2piv8YFOWZ3bksRaMgYVjk7x9cgNjGsO0J0LEFVbqipr3REREROR8OaflXtZa+ks+a45UeGxfkXVHynTnAgrFAK/qYY8OQ1sLT+8osHJvmUTcob0hxLS2MFcOTzBrcITmqIsxugIkIiIiInI5OCchxQssezJVfrW7wP07Cxzs8fDt0ZARBFgb1JLJS1mLVw3IepDNe2w/5HHP+jwj2sLcOC7JjZ0JhjeECGmOYhERERGRS9pZDymHClV+tDXPzzfn6csEWGuxfpVXqyqz1oL1sfjgH73PGPZ0Gf6rO8OPN+R5y6QEt0xI0Z5Qv7+IiIhc2lRqLZezs9aTUvIDVh4u8Z9rs6zfWwLA+t6rhpOBMMZg3DDGWGZ0xvngzAbmtEeJuupbERERkUuTQopczs7KkESm4vOL7Xn+e3WWbC44a+HkBdZarFfBGMPaPWU+1Vvm9+c286YxSVIRBRURERERkUvJGYeUvrLP97fm+ebqDKVCQOBXzsZxnVAtrJTJZCP8+4p+ctWAWyekaIpqlXoRERGRy53vWarVACw4riEUNjh10M/seRa/GmAtuCFDKOygOaFO7YzKvdJHA8pdqzJUyh6B553NYzslJxQmGnV5/9wm3jYxSaNGVEREREQuS9ZCMe+xY3ORbesKlMs+7cNiTJiWoGN4hPAFOk+0gSWX8dmxKc+urUVKhYDOcTEmz2qguTWE4yqpnMxrHkkpeAG/3lvi7tUZKiWfwD9/AQUg8KqUMXx9TZpBcYfrR8WJhxRUzhXVxYqIiEhdslDI+jxyTy/3fPcI2b7aOakTsoydHOfN7+xg9pJGQqHzHwh6uqr84jvdPP1QP7m0D9YQilhmL23k7Xe0M3R0vC5GeurRawopVd+y4mCZr6zsp1gMCPzq2T6uAQm8MvlClC+tStORdJjXHtMUxSIiIiKXEc+zrH4qzY/uOky54BHYWkgJKg7bNxT56TcOk2pyGdoZg/O2hDkEgeVXP+rmqV9nyKXLBLY2fW1Qdlj5SJZ43OFdHx1OqlFtCydy2iHFAvvzHndtzNKfDQi8c9eD8uoMgVehJ224a32B4ckwIxo0PbGIiIjI5aJc9nnywX6qRftiQAGwBPhelf074Xv/sY8hwxPY4Pwck8FSrlg2PddPLuMTvOSFrQ0IqLLi8X6uvXkQ46YkNJpyAqd9Rp+tBNy7M8+6PQWsd57+pF+F9aus2pnlwSERbp2YJBlW2ZeIiIhc3FRqPQAWKqWA/u4Klleel1os5WKVLast29ac38ofiyUI/BMeV2B9CllDb1eFsZMSoFPXVzitkOJby7b+Cj/bksNaU1s5vg7YICBwQvxwc455QyJMbY3gaMqEs0ofkCIiIlJ3DLghh3jSxXDicz+LxRiPcNzS1BzGDRmsPTfnicbUqo4KeZ9sfxUbnPhc2eAQikA84XKSw77snVZIyVUCfrOvSE+/jz3PjfKvxvoeh3osT+wvMaohTENEf+IiIiIil7pY3GHKnBTbN1YISrW1+uxLmk8MBmMcWgaFWfL6VsZNThJPuuekPyUILEe6Kjz7aJp1K338E1QdGQyuE2Ls5BhDR8VU6nUSAw4pFugq+jy0qwjGnNXFGs8GawOMCfHrXUVuHJ2kQVMSi4iIiFzywmGHxde1sGNTkW3rHfK5Er7nAxZjDOZoCOg+5LN6eZZUQ5jZSxtpHRwmEj0754tBYMmmfXZvKbBuZYEt6wqUC8cHFIPBOA6RSIi2IRFuuKWd5kEhrZdyEgNeJ6XoBdyzI89nHz1C4AV1F1IAjHFwXcNfv76d60YmiGruaREREZFLXhBYDuwu8+i9vezYVKD7UIkjB8tgoKHJpbElQm9XQDHnEU+5TJ/fwNLXNzNxRorGFveMRjNKRZ+De8usfDTNUw/10XXAAwLCMUO56BF4FjfsMHhYhFRDhLYhERZd08ycJY1nLSRdigYcUo4Uff7+6X4e25YnqF7IGb1OzQlFuGlaij+Z20RrTFO6nS1q3hMREZF6V60GdO0vs2lNnh/deYhsn0dHZ4Ql17XQ2+WxfmWW3q4qYGgfGmbRtc3MvbKRYSNjtf6Q0+B7lr4ej02rszzxQB9bni9QyvskG0OMGBvBDcGOTUVKOUvn+Chvub2DYaNitLRFSDWEMMonpzSgci9ra6vLb+stnevjOSs2dpfIVxoUUkREREQuI+Gww/DRcRqaw+zdUebhn/fSd8Snp6vKG97exrgpCZ78dR+7t5Y4tLfMfT84wtaNBa64vplpcxtoaQvjDqASp5D32bOtxNMPp1n5eB993R6Oa2gfEWHOkkYmzUrw6L39BJ4hmnBYdv0gZi5sIpHSuelADSikeNZyIO/TXwiwfn3M6HVS1tJTCDhc9BmaCmlxRxEREZHLTDLlsvjaJjasyrB/Z5n1K7JMnpVgyetbGD4mxvIH+li3Ikv3oSobV+Q4tLfInm0lFlzVxMhxcRIpF8+zlEs+NjCEIxCOOAS+pae7yvoVOZ58sI+dG0qUSz4NzSHGTIqz8JpmZi5M8eyjafZsLeGVLZPnx5m5uIFYQkMnp2NgISWAwwWfUsGHE8z1XE+s9SmVDd3FAN++hoVgREREROqASq1fOzdk6BwbY8l1zfzim0dI9/g8/WCaidOSTJyeYOjwCOOmJXj6oTQ7NhbpPVTh4V/0sntrkUXXNjNmYoJMn8f+3UWqlYDWwVGGdkbJZz1WPZFl9VMZ0keqRKIOneNjzF7SyOJrmhg+OsbeHUWe/U2adK9Hosll2fWDaB8W0Sxep2lA5/C+tXQVPAJsrfarnlmolD16Cj6BtWjy6bNDH5AiIiJyMYknXeZe0cS6FVk2rS6wa2uJZx9Nc+OtURpbwyy5toVR4+I8/Ug/zz2Z5tDeKpufy3Nwb5khnRFyfR4H95XwvYCG5gjDRsYo5j0O7q3ie5amQWEmzUiy6Nomps1LkWwIUSr4PPVwP/t2lLEWpi9IMXVOkphaEE7bgEJKYC3Zqo/BIaiTBRxPzoJx6Cv71HtlmoiIiIicG45jaB8eZen1rezdUSbb77HqyQyTZzcyYVqCUNgwcnycQR1hRk+I88wjGbY8n6W3u0p/dwWwLy5cnu2rsLmvtkZgLOEyakKcOUubmH9VE0NHRI8uEGnZuj7P889myWc82oaFWXpdC82Dwrpm/hoMqDjOWihXndoymudi5ZuzyFqLMS7ZSoBf76M+IiIiInLOxOIu0+Y1MG1eCmth/64qTz/cRyF3bFHyZEOIucuauOWOdpbe0EJjq4u1AYH1sUf/CWxAYD0wAeNnJLj59zq44W2DGDE6hhuqJZD+nirLH+qna5+HG3ZYeHUz46YmCWvtvtdkQCMpjjGkImAcF+O4nDKoWPuyNVQMxpjXliAtR5/rJauGGsOpV70xGMclHjI4Wh1HRERELlIqtT5zxkDr4DBLr29h19YCRw54rF+RY+qcFLOXNL7YJ+K6hqEjY8yY38CGVTn6u70XR1GOPZfBDRsmz0wyZXaSePLYabTnWdY+k2HT6hylgseYaQnmLmuioUllXq/VgKJdImx4w+gkE4e4hMMQcu0rvsKh2pfj2OMyhONAOFzbdqLHnewrHLKEwwGOc+wXxBiD4xx7rRM9LhKBKcND3DQ2SSKskHK23LFl0YsNfCIiIiIXi0jUYcK0FPOvbMYJGw4fKLP8ob6j66UcLxp3iCdPHCwMhmjUJZ50Xxw9ecHhfWVWPpahr8sjkXJZ/LoWho+KDWg6YzmxAY2kuMYwZVCE/7hhMAdyPtXglQ3phtpUxY/tK3D3c/1UKoC1dLZH+eCsZsY0h0+r594Y2Nlf4T/XpNlzuAzGEInA7XNbuHJ4HNeYE4znWKIhh6FxQywcOvWAi4iIiIhcFhqaXOZe0cym1Tl2bCqy5fk8q5/KcPUbW48rx2ppizBqfJyt6/KU8sGLvdgGgzEuw0cnGD4qRih87DHlks+qJ9Ls3FygWgmYOq+B6fOTJFIq8zoTA56h1wCJsMv4llMPWxU8yy8bChzqrQKWbNWQ8QImt0ZO++DWdJfJVo+WihnDoKYI84bEmNYWPe3nEhEREZHLkxsydI6JsfB1LRzcW6G/22fl42nGT0swekLixf2aWkPMXdrI4f0V1q/Iks+WsVjcsMOQEVEWXdvMqAmJ46YT3rW1yJqns6R7ApoGhVl0TTMdw6OacvgMnfWI15EIMbk9hsFgA0s6XeGhPUV2pF85pHYqO9JVHtpbIp2uYIPamMmUthgdCa18IiIiIpc+lVqfXYkGhxkLU0ycmcT3LLu3lVj5eJpi3n9xH9c1jJmc4I2/M5g5VzQST4UxOIwcF+fGWwez+JpmGpuPnYtm+jye+U0fe7eXMA7MWtTApJkpYnH1opypsx9Skg5LhkaJxQ3GdQl8y/oDVb61Mc+RgvfqTwB0Fzy+uSnH+oMlAj/AuC6JhMuSoRE6tFrnBXHnxKfVwCciIiIXLccxDBkeZeHrmmkaFCLb5/H8szm2b8oft18k6jB+eoKZi1I0NIcwphZSZi9ppKUt/OJ+QWDZsDrL+hU5ClmfoaMizL+6idbB4Ze/tLwGZ/2MP+Y6zB4cZfaIeG0mLgJKxQr3b83yxdUZ9mVOHVT2Zjy+sLqf+7fUZkcAizGGeSMSzGqPEnUVUkRERETk9EXjLpNmJJixsAFjDPt2lnjmN/30HTm+4sdxDKGwg3P0vNMNGdyXDY4cOVRl1RMZDu+rEok5zLuiibGTNOXw2XLWaqeKXkBX3iceNoxpCvHOySn2ZQL2dZUJvArFguXeDVmeO1TgpvEprhoWZ2jCIeQYPGs5kA94ZF+JX23PcbjPw/d9bBDghCKM7Ihy28QEoxtDHC5UKXqWjkSIeEi/BCIiIiIyMMZAW0eEBVc3sXNzgf07y2xclWfi1AxLrm89+Wxc9vgFOKqVgOefybDt+TyVUsDkuQlmLmqgsVllXmfLGYcUP7DsSFe5c0OW5XuKDG0M8eFZTcwfEuX3pqb4csmnPwvWq+J7Hgd64Gu9ab4VSTMoFSYWNpQ8y5FshXLZ1H4JgtpoixOO0NIY4vZpKWa1R3niQIkvr8lyMF3lilFx3julgTFNIVw1JomIiMgl5nIts/6bFfDhadAePzfPH444jJucYP6VTXQfPEL3wSorn8wyZkqS4aNiA3qOvTtLPLc8S2+3R2NLmPnLmhkxJoajKYfPmjMKKRXf8szBIv+8Is2+I1WwsKNU5cfbcszpiHLTmDiJsOHLz6U5cARs4BN4teG0ou+yv+zXIq212MC+GE6MW6v/6xwc4Q9mN7BseJyKb/nh5iw7DpXwffjVhhzru8t8Yn4TC4fEieiX4px6oXHvcv3AFBERkfPjvg2WBzbD9ZPMOQsrjc0hZi5sZNPaHJufK7B9Q441T6Vp6wgTjb3KTLZ5j9XLM+zYVMD3LJNmJZg2N0UipVGUs+mMQsrhgs/3thXY32uxXhUwmHCYaMjgYImHXK4fGWdkyuWbm/I8vqdIsWDB1kq5rH+0/s/U/uWEwoAhmXK5anSCd01OMqE5jGMMvvWJhmqr19ceZ9nfE+JPH3zhN/c0FmG5yCy/XQFMRERELh++f27DiuMaho+JMm9ZM/t3luk/ErD2mRwTpqeYMC150sdZa9m+qci6FTmy/T7tw8MsuKqJjhHRo73YcracUUipBpCvUBsNMQ6hSIQx7SFunZAiEa6lSdcxTG2L8peLw6wZF+cX2/OsOlgiUzT4nk8QgOM4hMIOTXGH+cOivHlskult0eN6TpJhl9smNbA/F7D9sMGreBijnhQRERGRS9W5DCvJpMu0uUm2PJ9i5W/S7NpS5LknMwztjJFqPPGoSN8Rj5WP9bNnWxHHhZlHpxx+tdEXOX1nFFI6Eg43jY6xq6dM1XW5cmycD8xoZGxT7WkLXsCGngr7sh7T2iIsHhpnwZAYfWWfQzmfdNmnai0Rx6Ep4jI06dAcc3GMYUtvhfU9FTobQ0wdFCERcpjXEePvloX4r3UZfrMtSzjs8+F5ed44JkEyfOkFliXfuHRHh0REROTUzkap9aVyLnEuwopxDENGxFh4VSN7txfo2uexbkWW8dMSzFnS+LKdIfBh85osG1fmKOUDxkyJMXtxE81tmnL4XDijkJIMO9w8LsmiIVEK1YBRjSHiR0dQSn7AfbsKfGllmmzeMK7D5U/mNbFwSIy2WIi22Mlf+qmDRT63MsOOLp/GpOWj85t4w+gEUddhdGOITy1o4t2TkiTCLkOSrvpRzgP1ooiIiMilJhpzmDgjxYyFjTx0sId9O4usfDxN59jjE5DjwpHDFdY8neXw/grxlMucJU2MnpQgFNJ56LlwxrN7RVzDyMZXJsjdGZ/7d5dIZ2v9J/v6Q6zuKrNwSG3WhN6Sx327Cqw6XGL+kDg3jkrQcnSobE13mf3p2mxg/RnDr3aXmTooyoTm2mhJPOwyeZCG1UREREROZfnt5sXRlIulx/VEoz+ue+4a6Zvbwsxa1Mi2dXl2bi6xaU2ODasyhCKm1tFgDJWSZd2KDFvW5fCqlsmz40yf30BDk85Hz5Wztk7KSxW9gDXdZTYcKGB9D3BIRF3ak7U/SC+wPLCnxH+vLZArODx3KI8B3jYhRcgxtCfCJKIuhVwVay3rDuRZ0xmlM+US09ooIiIiIpeFcxlOXhAKGcZOTjDnikYO7qtw5GCVNU/nGDE2guMAxrJ3R4E9O4r0dnk0DwozZ2kjI8ZGcbQMxjlzTkJKthKwPV2lVAYwuK5h0qAwizpqoyhFz7K7v0I2XSAIIFuBXf0Rip6lIWJYNCTGQ60FevsMgR9QKsHW/iqZSqCQIiIiIpeFy7nU+nyEk5dqaHKZPr+Rzc/nWf9Mjq3rsvR2hynmqrWKoF0lrDUEPkyalWTKnBTxxDk5jZajzsm72xBxmNQcoiHlkitGaGs23Dg6wdBU7eWstVhsbeZhC+ZoSrW2Nrw3NOVw/egE2/sDejKWVCxgUnOYhogCyoWidVJERETkfHjD1PMXTl7gOIbOsTHmLm06OiVxlUy/R+AHBDagUgLHuAwfE2f+VU0M7YyiGYfPrXMSUuIhh+tHJWmJumzqrTC9LcLCocdW8HRMbdZijAXHARNgTO1+AIPhhpFxmiKw7kiVKa0RFgyJHTclsYiIiIhcev56/oV53XjCZdq8FNs25HnqwV6qpQB7dB0+g8ENG6bMaWDCtCRhXTg/587ZOFVDxOGakQmuGZl4xbZE2GHG4DiPDqrS1RcwuKX2feIl0wjHQg5Xj0hy9YhzdYQiIiIiIjXGQHNrmI5hERzXEHjHb7cBVIoBnndpTOtc7y5IMZ1jDNeMiDM45rClv8rE5jDT26I4GjcTERERAVRqfSFk+qp07a8QeLw4igK124Fv2bGpwN7tRdqH1oKMnDsXrOMnFjLMHxJj/pDYq+8sF5w+IEVERORSl+7z6D5cwZ5gsMRi6T5covtQGa8aEHE1/fC5pII6EREREREADNijXyfgGIPjOBhNPXzOKaSIiIiIiACtg8MMGREFgldsc3AZ0plgSGdEq8yfB5rgWURERKQOqdT6/BvUEWb+VY3s21Fk15YS1tZm+HKMS7IpzKwlDYyemNRIynmgkCIDouY9ERERudSFww4z5jcQChke+WUPOzcX8KsObUPDLHxdMwuvbqKxWb0o54NCioiIiIjIUdG4y7R5DYyakKC/p4pXhcZml6ZBIaJRt7YIuZxzCikiIiIiIi8Rjji0DHJoag2BBeMYrTB/nimkiIiIiNQhlVpfYAat4XcBKaTIgOgDUkRERETOF1XViYiIiIhIXVFIERERERGRuqJyLxEREZE6pFJruZwppMiAqHlPRERE6k3RswBEHPjgI4YPToMlHfC3K2FEyvLeSSdufP/kcrhmONw08th9d2+BZw5bvnDliR/znW3QXYQ/mgH787Aj+8p9BsdgcjP4gWV1D/zPHsOgGLgGDhXgzaMsQxOGv3oG/nQOjG2sHX9Yi0O+gkKKiIiIiFyU/vAxQ9S1/Nsy2LjPcmiMoeRb7tsE00cYxjUd23dxu30xDDy71zIiZVhasdy7p3bf1jSs2M6pZpAAACAASURBVAn/0QaN4dpjbui0tEZr25/rhr2ZWkj5+S64e6XFeUnjRGBh/hj4/DJDyYfPrjIcTlvCITAGyhXY1GMYnLSs3wvv3Xvssb+87djrSI1CioiIiIhcMh49aPB9y5rdljW7j93/s7cbqgGs6Abfhy39licOGT73pKWxAVwHWprgp1ssgYV0Bia+EdIVeHC/ZWe/IVOy/NcmqASG5ib4n5uPBYv3/BpiRxejT4YNzTE40Auj2wwGKHkwqRUe2AzRGHzuOsNHf2X559dDS+T8vkcXA4UUERERkTqkUuvTF1j44mrLmCGGL15t2ZWFsQ21bU0Ry093Gf7p8VoIWbUTmo6Gg08vNWzPwM2jLN/dbrh2OLz7p7VSrJ0Z+P4GKJUtgV+7fcO4Y6/5xCF4YB/s6LIsnFULLY8fgjW7LROGGZqjlpaYoa9kWdNlmD8aeouGP/61ZcQgw8L28/kOXTw0u5cMyJ0Tn9aHpIiIiNS1ld3Q2w//ZzF8b5vh4w8eHfWIGowxvHUMPPF7hlgM3jHH8L/mWD52heHTT1q+v9kSC8H9u+BTy+HPrzaMa4Rrh8P9txgWjzZ0Djbcf4sh+ZLL/K1RyFQsb51ueN+kWrCZ12Z5z3zD7iOWRNiwtqu2b2ejZXSj4XDW4vuwv9fyv5+GruIFeLPqnEKKiIiIiFwSFrTDP98A4xrhPRNr/SB/cZJrrH1l2Jc3PLQPcnn4y4W1BvbPLoP9PZbN/dAUOb5PxLfw3W2Qq0KuAB9/0vKfG2vBZF/O8rXNtf3jIcM7x1tunFgLNJ2Nlg1d0F0w9BTh92cZHnoH/OO1hlzF0hC25/R9uRip3EtERERELkofmm5xDBigvRWao7CovRYUEmHD/1kGqfCx/Yue5fFDBs+D+zZYhiUNS4fCreMNC46WXY1ugE8sNYSPXsr3AsuKbsPOftjXbflyGt54dNawDV1gLUxth43d0FsEpsHeHNzxK4Bj4SMIYOchy6E0LN8LX37u2PbDRcPohnP5Tl18FFJERERE6pDKrF/diKThQw/XbhsDn3uu9vVyX7gaOlPwpfWGH66xGODqiYb3T7Zc94NaI/1nTvD8bxpp+PIGw7dXWVwXBrfC994Ad22GVAJ+d4rha6st/7AYfutncG1n7XHDk5YfvBnu3WtY2XXyUZIJzYbbxlmaIpZa1JIXqNxLBuSOLYtebOATERERqQeVAA73WOYPgaYoZAqWN4+FdN7SEodFw2rbS35t/3eMh2+/1RCNwbAkOMbwycWGTy413D4HqlW4dXrt+08urYWGW8fCN99iWDrWkAwb4qFjYeJNo2q9JX/6JBQK8NujaoHEMYaWqCHugmvMSb9irqUlanCMAsrLaSRFRERERC5qbxkD97rQV4QPTIEfb4HZg+GNI+Hnzx/bb3jylY99YUHH7RnDf2O5Yohl3uBjoWFo4uSv2xo1vHeO5T+fgamdhubosW3WWsq+IRk++eN9CxXfEnEVUl5OIUVERERELjqHi7C+t3Z7cz8cLlgqPqw6Yqn6tRXeN/TVtm/sh+YINEct2WqtvAtqCzhuS9duHyrWRkGWHzYvzrY1oQnGH10QMld9ZUnWhj740ZbavVsOWu7azIur3Jd8+NyTlo5BhqYor1D24b4NsLjDMK3lLL0plxCFFBEREZE6pHVSTu2HO+CbK2vB4p8eP9b38ZH/qf33kc2WRzbXbv/DbywfXAiLOgwf+EWtJ2V2W23l+B+uOb5n5Furjn1/2xzDR6ZZbvwRFItw7eTjj+FTT0LENXzjZrhnD/zHM5a2GLx51LF9/MBSDV45UuIFr/1nvxwYa63mPKtTS75xNNHfriFAERGRy83ZCik6nzgmsJZnugydqROXfp3Mowdr/13SYQk7hi39sCMLE5tgZMoScmrv7eZ+mNRc29cLLF/daFjcbumIv/K9L3jwwH64bRy0xc70J7v0aCRFRERERC4LjjEs7jj9x1019IVbtbAxsbn29dL74FhAAQg5ho9MO377y01sPummy55m9xIRERERkbqikRQRERGROqReFLmcaSRFBkTrpIiIiIjI+aKQIiIiIiIidUUhRURERERE6opCioiIiEgdUqm1XM7UOC8DouY9ERERETlfNJIiIiIiIiJ1RSFFRERERETqisq9REREROqQSq3lcqaRFBkQNe+JiIiIyPmikCIiIiIiInVFIUVEREREROrKee9JsdZS8i2P7+zjm2t72dDtEgrDguGG985sZUZHirDrnu/DEhEREakrL5RZqzdFLkfnNaQEgWX14QKfW9HHxkMVLBECW6VSMSzfF+HZ/T1cPz7Ph+YNZmgqhMGcz8OTU9AHpIiIiIicL+clpFgs6ZLHjzZn+cbaLMVqmMA6OMYQCofAGALPxzMu9261rD60j48tauWKEQ1EQqpIExERERG5nJzzkOL5ARuO5Pn8yjSr93o4oRDWrxKPwuLhLm8YGaOnAr/cUWbLkQDP8ziUj/HnD/fx1qkVbp/WRHsihOMorIiIiIiIXA7OWUixWPoLVe7ZluPO9Tny5QjG+BjrM3qwwx/Pb+KKzsYX9791asA31/Xy9bVZskUPzzj8cH2FlYe6+Ni8JuYOSWpURURERC4bKrWWy9k5CSnVIGB7f5UvrurlqR1lnFAEgjKxKLxhXIQPz26hNRU77jGO43D7zDbmdcT4lxVpNnT5eF6VXX0xPvHrI7xrRoFbJ7XQplGVC0LNeyIiIiJyvpzVkGKtJV2u8utdOb6yOke2FMdQwdgqw1ssH5nVxHXjW075HNM6Unzphhh3Pp/l+xuz5AoVqm6Eu1ZXWXGoiz+c28LUthjRsGYAExERERG5FJ21kFL1A3ZnqnxlVQ8PbykSiiUJKjniqRCvGxnmo7ObaG+ID+i5ouEQH5rbwrwhYT63op9tPVU8Dzb0JPmTB4/w/pkNvHF8ikHxMMZoBjARERERkUvJWQkp/cUqj+7N88UVfWS8BpywD0GJYW0hfn9mE2+a0PjqT3ICC4al+MoNUb68ppdfbi2TL+QoheN84ekcK7qqfHhWI+MHRQmr/EtERC4iQRCodFlelUqt5XJ2RiHFOzp6ctfzvdy3sYgTS+GXsiSSDouHRfjjua0Mb469+hOdQioW5k8XdbCgrZ9/X5NhT18ZMDxzMMzGroP8wbwWXteZoiURPqPXkVPTB6SIyJkLgoAdGY8nD5SY1xFlUnOYkKuwIiLycq85pGTKHk8dKPDFlf10FZPg+lAtMqTZ5b0zG7h1yql7T07X68Y1M21wjC+s6efRPVVyuX4ysRR/93APK6aVed+MFkY16MNeRETq06F8lft2Ffnehjw9OWiIZrhlSoq3T0zSntSFNhGRlzrtkBIEAXsyVb6zMcNPNxQw4QReMUM84TBvSIg/mdfK6NaB9Z6crsGNMT5z5RB+viXN19ZlONhbwISiPLgrzNqDh/jDBa0sHhanMXpe1qgUERF5VVU/4OkDRe7ckGfNzjxOOIJfKZLxY9z1bJo13RV+Z2KCZcPjxDQpjIgIAMZaawe6c65cZeXBAl9a1ceuTAIbVMGWaWuM8I5JMW6f2XYuj/U4e9Nl/vXZHlYc8inkPULxBmwlxy3Tk9w2uZFRTZGLvql+yTdqfzTLb7+4f456YY/+63z9WrzwP5b+9EQuX4/vy/P1DTk2HPSo+oagWgLj4IQiWK+KDXyccAw35DNxcIjfm9bA60elLvRhyyVG5xMXVrnkc3BPmf6eCi2DowztjBCJ6oLEqxlwSNmbqfCTTX189/k8QaQJv5gjGjPMHBLho7ObmNp+bkZPXs0313Tx7c1FjqQtuBGM4zK2ucRH57Uyuz1GMnrxDqHX04fKxdy8Z4GKbzlS8iGA9qRL2Dm376kXWPpKPmXf0pYIEXWNworIZWRvpsKdG7I8uK1AoWgBS+B5OOEosVCVuaOSPH+gRK7kElRLGCcExhCPOyztjPK+6U1MHBS50D+GXCLq6XzicrP6qTQ/ueswO7fk8coBkbjL+KkN3PqBDibP1AWJU3nVuqhixWN1V5Gvrs6w4bABJ44tZhjUHOatE2O8b3oz4dCFK69696x2Zg8p8MXVaZ4/VKFS8diZTfJnD3bxrukpbp7cyrDUxRtU5Mx4gSVd8bl/d4HvbigQduADMxtZPDRCKuISOsthxbdQrPqs7CrzjfVZDmR8bpmU5E3jkgyOn/twJCIXVr4a8J1NGb6/Pkt/DgLfByzGuERiYeaPivL/zRzMuOYwe7Me//18mke3+3hVsIFPoRDw0DbL03uLvH9uC781NkFTTFdcRS5Ga57O8G9/uRu/BH7gY7FUirD5uQKf/9QuPvaPY5gwLXmhD7NunXIk5UCuzL3b89z9fI6inyCoFAmHLZMGO/zBrCYWjGg4n8d6SuVqlf9a28/Pt5Xp6avgRhMEfoX5I0P8wcxGZgy5+NJqPV35uNhGUgILuWrA6q4SP9lW4MmteezR6T5Drs+V4xp56/gYUwfFSIUNzhnWgFkLBS9gc1+Vn2/L8+C2HOWqwVrA95k2OsE7J6VYODRKKuyc9XAkIhdW0Qt49nCJr63Osn5/CaiFDuOGcAx0tLj80fwmXteZPO7/f4vl3h15vr4uw57eAK8aYAMfjMEYy9ghUd43o5ErhsZIqd9SXqN6Op+4XBQLHp/5yBb2bfPwgvIrtofcOFPmx/jkP44hFNGFiBM56Sfepq4CX1yb5antRZxwFOtlaW0Kc9OYKB+Y2UIqNrDRiUzZY1/OoznqnvaIRqFS5WDBkgzB4EQI9xRzykfDYT4ybzCz27N8ZXWarV0lwGHVwQh/3neEv7ka5l6EQUVOj7W1k4VdWY+71qVZvqdEuewQBBZjPQCqvsPDW4o8tTvPFaPjvGdKAyObwsRc57T7VSxQ8ixdBY8fbclyz9YCuQLYALBVjDEEwIb9Hn9zqJvZwxO8a2qKmYOjJEJnHo5E5MLb2FPmW5vyPLQ1hxeECHwPJxTGOC4tjQ43jonzrmkphiSjr3iswfDGsSmuHBHjOxuz/HhTliNpg3FcrFdhZ5flr359hKvGJ3jX1EZmtkVxdJHjsnGxXSCUY3ZuLrFna4nABifc7vtlNq2ucHBfhc6xF6Zlot6dMKRs6crzqce62Z9PAhb8PGMHGT44I8rrJw7G930qlQqRyKnrZXNljx9uyfL9zQUmtbj88axGxrYlBnRgxUqVn2zO8LOdHh1Rj48vaGXMAGYNu6KzgZmDQnx1bT/37vBJp9N02RSfeaybL77eMKJFw2qvxcXwAVn0ArryPv+zq8DPt+Q40ueDAWN8IjGXoY0OFjiYtvieT6EID2zMs/ZQhVsmJ7lhVJLBCZeoO7ATgGpg6S96PLy/xPc25dl7uIzFAJZQOERL0pCKGPb3+3ieT6VseGZXiXWHitw8NcWbx6TobAgRCznqVxG5CO3PVrlvV54fbS5yJGMJvACCEm4kRiQMC0ZGeffkJPOGvPrfXQ2REL8/q4VlwxPcvSnL8j1lCqU4QbV2BfY3OzxWH+7h5olJ3j4pRUdCoyoi9SzTXwVcwD/hdktAtWzo7S4rpJzECT/lPruij73pKH65H2McXBMwOV5hT4/hK8vzhF0HxziMGZRi2agGQu6Jh6n6ywGP78mTo4Pluw7h+X38xdIQQ1OnDjcVz+cXW9N8dVWGariNHQd72T6udNKQ0luosD0TUAoC8CEScrh6ZBP7M308kTN4hSz7vSjfXt/LJ5cppFxqKr6lv+LzyJ4SP9ueZ8veAjgOEBCJxWhJWq4fHefWCSmqFr6xPs3yA1XSeUulWOJwn+Ery3t5dF+Jd0xOMq8jTnPUOWn/iG8t/eWAdUfK/HRbgSe3ZQkIYX2fcDxGKmZZMCzO2ycmGZFy+NnOAvftKHAwbamUKhQKhm8/m+GxPWXeNinJVSNitMfDxEKKKiIXg6Ln84MtOb67MU93bxWMg/UqOJEYtlrhdeNj3DYpyZz2yGmvKj+1Lco/LIuysafMnRtyPLq1RGCjBJUi/UGEb6zKce+2PG+emOCdkxtoUgmYSF1qaHohoNQuXr6cweCEHBqb1Td9Mif8dNvZX8X6AU4oig0Cqh7cszuGs7+2u/WrALQ0VPlSEiZ0NJ/wyVtiDleOiLFl7SFwXFbsrfKFVf18fH4LbSdZId63lgd2FvjKczlKXgRb7WdSh8PolhOvXG+t5Vvr+/jJ1grFsldrRjAABtcE+J7FuA5Y2JY+zXdH6lpwNCw8d7jMD7bmWLO3gm8NFgi5DqmEy3Vjo9w8NsnUtmNlFn+xqJX1vVV+sDnP47s8ChWDV4ENBzz+tqufOZ0lbpuYZObgWv/IC1nFAvlKwM5MhbvX53hqb5FSxRD44IYs0VSIJaOivG1CgrntUUJHT04+ML2JG0cl+Mn2HPdus6TzUCmV2d8T8IXlaX7ZnuedUxpZMixGc1T9KiL17JE9Be7akGHL4QDPC7BBAAQYJ8ywZrh9xmCuHxWjIXJm4WHKoCh/uchl+cgYd63NsmW/A0FAYH260mG+virPo3tLvHd6ihtH109/qIjUjJmUYMTYGAd2nrgnxXXCTJgRZ9ioE5/fCrif/vSnP/3yO2OuZWO6jB8YrLU4roMTCmGMra09YgHHIcAyNVVm4pATh5SI6zCuOUTeq7KlL8APQuzuq5CrVpnRHiEWOn4ExlrLw3sK/OuzvfQXXIyBzhaf/724lWkdJx4B8X2fzz7TR3caAutgTQRrQlgTwrdhjGPABjQ2uLxnSoxJgy+ekZT/XlP77wdm6aT1pSxQqAZs769y54Ysdz3Xx56egCCwOMaSSISYOSLGx+c3ccv4FENf1gtljKEjEWLx0CiTB0c4WA7IlA2+7+N5sK/X48mDeQrW0hpzSYQM1cByIO/x4605vvRchvX7yni+wVhLNOYwfkiE989u5n3TGhjTFHlFr0lT1GVee5RZ7THyQUBXKcAPIPAtvXl4an+ePQWf5qhDY7Q2C5jaVUTqg28DdvRX+ezKHr62so9DvQG+52MDD+OEaGxw+d1Zjfz50lbmdcSIuqc3enIyUddhXHOE60bFaEiG2JGvUqo62MAj8AP6cgGP7S2zrq/KiAaXtph70a8PJsd7y6AP8pZBHzzj59H5xPkXjji0tIV57qkMXvWFki9DbQzFYFy44+OdjBijUq+TOeGlnt+ZWpu299kDedKBe1y9fMWHJ3dlyJVCte7gV1llpTEW4f2zBpGp9HD/tiq+DfPLLQUaYob3Tmuh4SUN+I/vyvAvz/TRk3ExjqGjyfLJpYOZM/TkwcK3llDIYH0PTMDQhgqJkAtH/44IhUIMSqa4rjPGb01sHPAbI8erl+a9ohewP+/x2P4SP92cY393BWMMjmOJxR1GtYT47fFJbhidoPFVZsuIhx2WDU8wvS3KPdsL3Lsjx940lEpVsjn41rP9PLanxC0Tk4SM4Z6dRTbtLYBxAEssHmJwynDTmDi/PS5BR/LUZYwhx2HW4ChTBoW5f1iMn23Ns7WnQqkMpbLl4c0FVh0o8tYpjVw7Is6IhhANkbNzsiMir01PyeM7m/P8YG0fhbKL9Sw4FuM4RKMOS0cl+eDMBia0nLs1TZpjIe6Y0cSNYxLc+XyG+7YXKBUtWEul5PH4thLP7s7x3nktvGlMkqEplYCJ1IP5VzYzc1EfKx6yBHiAg3EDAt9ifYcNa3LMXtJ0oQ+zbp30k2zZyAaWjXzlEHK+4vGRTJkNh50XZy96NS2xEB+a1UK61M3T+ywecX6wsUBDJMR7prdgjOGZfVn++dleujIuxnVpTVT5+II2Fg0dQKN9YMCplXd9fHaSKe0pHMfBWgiHXVpSA2vWl/oWWMvyg2W+ujbLrkMlAgvYgGgixrBGh7dPSXHV8NhpN5Q2R13ePbWBa0fG+OWOPPfugsNpS7ngsae7yue7ezEG/MDBBpZw3GFQ0nD92BhvGptifPPpnZxEHIc3j01yxdAojx8s8/PteTZ1uZRyRdLZEF9/po8Hdhb5nclJbpuUwtWVUZHzLl8NeHJ/kbs35di4twI4WL+KCUVxjWVkW4gPzWnk2pHn7++XYakwn1oyiKUjYty9Psfmbo9K2WL9CqWKw1efznDv9jzvmdnI1cNiNMUUVkQupH27iqxfmQMcZi9p4Oo3DyaZcvj1T3pY8ZsCv/5BN/OWNjFJizqe0Gl/gnkB2NdwzjSsMcIn5rfyf22alfs9SuUwdz+fYU57DLD866o0+zO1K99tyQofW9jCNaMGWJp1dDTHOIbWZISOVqXSS1HZ9/mfXSV297r4foDrGga1xrhmTIKbxyWYeIZXMoelwrx/RiPLhif58Y4cj+y0ZDIe/tHZA10nINkUZu7wGL87McXM9sj/Y+++4+O8qoSP/+7TpmpUrWZJtmW5dztxmuMkpEF6CAFCEmqW3RdYXljaUvaFXZa6sEtbOgmkhxBCIECc7pI4dmzHXe6WLVm9jqY/5b5/jFxl2bIt25J9v5+PQZl5pkgz88w9995zDuYJJsUeKj9gcHO1wbxiH3/aEee5nS7tvZJM2qOpW/DktgQ3VQeInOLedkVRTsza1iRPbkvw6s4Ejmci3QxCz5YULsoVvGN8kPdMzKHkLK1YXFUZYn6pnz9uj/GH2l72dQg03cCzM9R3GnzzlQ4W14S4a1IO80ostQVMUY4jEbeRniCUM7Sf6ed+304yqmMGbd77T6OpHJ+d1Cgs8bF53TaSPSaP/2IfX/heDf6A6pVypJN6NQYo+dyP43o0xR1SrkQTAkPXuanaz+6OTtpiOj298D9vdpKwJXXtLggdU8/wjrFhxkQsdvVksnkGmqA0oBE8zmBNemA7Es/zTriiijL8SU+Qdlyk44CUjC0y+cz8fOaV+NGHKNlcExpTCjU+n5/LxaUWP1zRTWNHdsWwME/nY/MKuKrCR8gcupNJedjgn2ZGuHy0n/s3Rlm23UG6NmlHZFeLlDPi9RZ4tg6+edHB/z5SoQ8m9aXgLW+B9FEqSy4skwdykrb3wI83SL4+H3ItwWvNYB/l/LmgVGJogoYYfO1N+LcLYEwOJGzJ6g7Bi/VQFMjWBWlPwnVVkGvCD9bB9y+T5PvUIHQobGxP87uNUVY0pEiltWy3eM9GMwPkhDzunBLm5uowo09wICOlHNJAwfU8QqbOvVNzuak6xHN1SZ7Y0ktjZwDPSeNJydIdGVbu7WBWmc4/z81jUkH/Hi3K8Ddctlqfq6LdNs8+3MralVGctKRmZpjb7y2mrOrUk9nrtiZY9nw7YLHgurwDAQpAaYWP299fwiM/ambHepdXn+3k7XeOOuXHPNectmmgaNrhkdoenq2TZFJpNJ3sioeUxNPgOdkKYZuaNJASz3URwsPTBX+py/DX+i6klEgJmmExKcfms/MLqMxVVRDOhuFygtz/PS+ExoKqIPPLTk/CmalpXF0ZYvHeFE1dLpphMaPE4vox2cez+6IHXQiGIj7SNMGMUT5unxDktZ1xEBra8RK+lCG1oweW7pRwUfYF/ewi2e8VmFYp+PVV2Z//bZkkHu9/P6/cDb+uhdlF2RTJN3dBcq4g14KvviZJH1LkRXrgerDovRCxoNeGTfWSnpnZ59CSEvx4LbT2SMy+9D3bhm2dgvwA1DZI7nvpYJGFR66Tg+7zoxyUyHg8ua2XRzbH6OrJRp6ek0YzLYRwuGaiyd1TI0zON4/ZVPhQ0YzNot0JFu9J0W27GLpgWqGPm8eHmVxw4qu+PSmH5/YmWdaQoD3mEbQEM4p93FId4q7JOVxc4uOBLVFeqE3hShM3kyLlGazY7bC9o5WbJoS4Z2qEfLUFTFEASCZcfvafe9m0Mo3rZQBJexPs3Rrjs/9VQ1HJye/OkFLy7BNteBkf/rDNDe8p6XfMVTcXsvLVLnZsdPnTQ83MuihnSIKjc8lpDFI8ljckicrROG70sFLRUncwAg7SdfDsVLaCmOlDMyyk0Oh1THCzwQuAhp8VdXtpnxahUu3kUsT+/xncYMzxJF1pj3i24TwRE3J92qByPdy+YMRzXVriNksaEgix/32pMynf7Jek6klJNOMRzUhcCUEjm/cymMGjJFv3Qw5QV10Zert74Z4/ZSdEJHDZQ5LbZmRfqy9fIZhWAGEDvrFGEsscftv3zxNcUwFxBxrj8PVXs6/Zszuyr+ScosOPf/GOw98DL++DL7808Os8LgcKAtAWhbnl2YA4bkvml8DPV0jKiwR3TYYfviF5x2SBarVzYhzXY3FDkl+u62FPh4dru0gv2wTWME2qRul8eGYuV1WG8BuDX51/sznJ/7zZze52D8d1ESKbI1nblOTZrTHeNz3Ch2dGBr1ddGVjgu+tirK3w8HzALKVNzc2ujyzpZcPzMrlg9Ny+fL8Am4aF+SX63rZ0ODgOh4g6ezReHhtjJf3pPnIrAhvHxtUpc6V896Glb2sfyOGJ232f996rkNjXZBlz3Vw2wfKTvq+t66PserVTiQmV91cRGlF/+DD59d57/+p4Juf2k6i2+T3v2nkk18di1A7gQ44bUFKvj+bHPzMrmYyvkS2FHAfgUDTBN1Jj7YeiRAaEX+GwoCNpml4h+wnEwg8oTN3Wi6jI6eveooy8vSf5+4vYXusb0vzSmOKhlj2sgkRwYLRfqYXWscdeKT73orSSbGlQePf25L7IwlMy+ITc8LcfkjVuIwr2dadYXFDkm1dHhkPysJwSXGAi8p9RI5TrUv2DT6UM6fEL/nSFYIljfDaDskXFwomRODp9dmVu88tgysrj35bQ4PfbYWdXfChacd/rFVtkq3dB8+F27qPffyyZli3R3JhNWgCDAFdKcHvt0jyItDaLXmzVWCa8PnZcsi2PZ4vVrek+dLzTXjCh3Qy2W1Zmk4kR+PDs3O5vSZE6DhVAo+0syfDV5Z00BXTkK6DaQh8pg1SI5kRJNM6v17ZjSMl/zQr97grM6ua8mcfSAAAIABJREFUk3xpcQfRhIbAIWS5FEd8xDMenQlJPGXwy1UxYhmPj8/JY35pkNnF2SIgD22K0djp4tgObsahoR2+ubQbnwbXjh055fgV5XTYtzeNEDrIw2efpPSo25k66fv1XI9nH2vFc3zkFNhcf8fA27gmTg9xze1FLHqimzcXR3lzSQ/zr8w/6cc+15y2ICVkGdxUk8OcUT48EUEcMe4SwPKmJD9ZEUVicvloj3dNysUyD+9psX92szRiqUolyglJu5Ln9yT57cZotlSxln3/rHRtljUE+MeZIa6oDGEdY4Vj/2qLlBLHkTieyL4phcBwJQn34BvblZKVTUl+tSlObX0cRF/zU+mxLJLm3mkh3jkxTMhUsyTDSdAU3FgFHSl4XYMbq07fY/1so2B7syR4yC7F3AgM9BacVyQZVyrY2iYpDkNbXLKwStCZgi/Pgy8sFyzZJqkpF0RtiUo7ODFJR+I6gMgcnBwQgoKgzqQCE+ME80iSjsdvN/bSFdfxnBQTyyzumRph/ugAniv5++4Ej2+K0t6r8+jabi4s8TG/fODqYNG0ww9WdxNNahi6y23TcrhnSpjSoEnSkbxYn+B/V3bTk7J4clOMa6qCTC70YWkat9fkcGVlkIc39/Lkxm4ScYF0baTQ6bXVRMhIMVy2Wp+L8goMBtqxUFB08pPim9bEWLc8hpQa19xWTGHxse/rlveVsO6NKC17LZ78TTOTZ+cQyVPjXTiNQQpA0DKYMGrgh2hKSZBR0ARFAY2ppRGV8D5MjcTkvdqODD9Z1UU0rmEYgoKIREhBe1Swt83lh6u6KQ0bzCgaeA+ov2//jBAapk8jGDCJxWxc14MjkmHbkg4/WtNNXXv2srxw9vbtvdDd6/HLNd1URAyuqlQlsYeTFxrg60slngeuCwsfk0wfffD6jCvxD1GeR0O35J7Zgo9OGdzxAUNwaTn8sRY6EpJkCpbVS64aI3j3XyWmLrlztmDxXsnNT8L3r4WL+299VgYghOi3a1S6NnvaND7zYivX14S5vSbM1KLBRX/buzIs3R1DaAHKC02+c0UJlZGD34EfmJ7LtGIfn32hhUTK4I/be48ZpLy4N8Huzuy55u2TAnz+wsID14UsuHV8DiFD499eaieZMVnWmGRivoXWt6KW79P55zl5OK7L4+viuK6HdCWCQVa/UZRz2JyLcigsE3Q2B3Dc7MqJADxcZs4/uZLAru3x7OOtCGlSVO5x9a1Fx71NJN/kzo+U8eOv7aG5zuDPjzRzz8crTurxzzWnPSKQUmI7Ett1D/uHlCScgxFsyoFYKoXreYcf60gcV51QlRP311299MQA6TCn0seXLyngy5cWMLHUBFxaeyQv7DlK5vMh/H07PYRhMb7Ez73TwxTkmgi9/8zIhtYMe9ocpOdQkmfwiQvy+drlhVxeHURIm7Rt8OedMbWda5iZlg+fvEgwoUzg92d/vnviwZFrNA4Vx/i+GuyrmXIlvb3QFIdHdxz+rzs98L3cN0Xy1csEn5onmFImKA4Lcn0wp0wwp0ywvUtycw18+xrB/GL13joVmmmhGRaekyGZgGc2pfjY8218c0U79dHMMW8rkWxsSxNPaniZJB+amXtYgLLfBcV+rhobBGGwoSVNe8IZ8D7XtqTIpD0MLcNHph19C8hlo/1MLvej+8Ns6HTozfQvOTcqaGCYOkKoSUBF2S9vlMV9n6+iaryJYRjoerZcjZDw4p86SMQH/mwOZM3rPWxcGUNKh2tvH0Vuvnn8GwEXLsxl3sIIQmi8/EwH2zfHTvixz0WnbSUlZTu8vCfBo1ti2F7/zvQa0J108FwPvAx/3emxoq09+yY54lgPyRUVfu6elke+f3AvuHJ+k0h2dGUQuo4mXe6aHOHS8uwem909GbY19yA1Hzs67WOWBzX7ZtCFrlOdb3JLdZAX96bpiLlkq0EctLPbxpPZbvTXVIe4ZXx2z3fIFLxeFyNtS7a3pXE8eeB+lbOvPATvqoZnd2crZ5UG4bLS7HVtyWw1rjHHCFJ2d0N+oC9R6RgaYoKcHMnr9ZLX67OXuR7E4zDvFkHeAJP1poDfbcmWLtazfWt54E1JTZlgYgFMLxIU+eHyUo77HJSBCc2grECnJ+aQ6MtR8VyHuLT404YEr9cned/0XN45PoT/KCXIpQe9GRehawjXoSw08NfrpMIAz3rdOK4kZksGmmvtTEmErmPoDhH/0V9bTQiqcky2dEh6kpKELTmyCKbH/jo0KohVlEPNuCDC+B8H2bsjgxAeby3v5i8Pd7Du9QSP/7SJD32m4rCc6mPJpF3+/GgzurAoGQNX3lR4/Bv1EZrGu+8rp/at7SR7TJ74RROf+041Pv/53TvltAUpbXGH32/uZmcsFzcV639uFCBdHYkD0iOWsYh3Hv3FEIaPR9p6uLTMT365ClKUwQkYGkgPKWFfzKEn7eJKaIg5SCmQnkfgOP1ODiTnS0nchsaES6Zvq9eR48GAka3IJRC0JVya4y5hE+qj9oHVk4ClI9RAcliqa5cU5wu++LLkW28TPHOn4MldIJD80yLJ724UFPgOD0ZsD/a2SaZPEdkA4hgT1TW5sOj2w1/79R3wj3+VHCs3e007tMb6Dy6bopKu5MH/nlskqFJNi0+aZlncMD7IlVVBfra2m+XbHSRaNqFeCFq6dH68vIfn6xJ8dGYeF5b2b+Z6cKVC9ptsO5TfkCDdvtsMfKDteYi+DQ/eAE2ThABTd0HqeFKeVLNlZfgaiVutR5pg2GDy7OxwePy0IB2tLm+82MtLz3Qwqtzi5rsHt4d2xSvd7NqUBgQ3vLuc4Ak2ey2v8nP7vaU88uMmtq6xefXZTq55Z+Ggy56fi05bkBLx6UwZ5aO2rQcvk6H/RLWLlNlvZiEAz0a6B8vAHSAEnpNhfKlPraKcRSPtBCkQXFgaYE19FNcTPLopSmc6G2A8vyOBJzVMw2FeSeiYTdZSrpcNqB2b2lbJbzxJazSdHV8Yh48sp4+y8Psk6YzGkl1x/DqUhAxeqIuTTmtohmT+6CCGWkUZdta0Z1dMvnK1ZFG94IFa+H8XwJObJJMqBFsaJCED3mwTjMuB6gg8caNgeUs2j2XuKFjbDkvvzs5s3zsNpuRLks6xX+v9uwkGmnTvSks2d8PCqoP3I4E/dUsmjoKxkYOXL2mCG6okBaqx40nKTjJMzrf47ytHsagqwAMbe6nv0PtyORxs12FTveQzTc0sGB/mY7MiVOUYJzyIkCqSUJRhyTA0PvDp0XS07mL7evjDb1ooKjG55JqCY94uGXd49vFmdM2iaqLg0muPffxArrqlgNWvdVG7Js0Tv9rHile7KRvt5223FzB+8vlXke/0BSkBgw/PyGdhZZqM7R42EBRCYGjwRmOKx9ZFkVgsqIKbakL4LPMoM0YaVfk+Rp9gVKqc364fF2ZpQ4raFoemDpcHu6NIsgnSps9gXoV13CT2eN82dM+1ae3waOt0kDKbU3VkkDK5wGJhdYjFdQ7JhMufN8WzSXgSdNOgqlDjlmqVND/cuJ7kP94Q5OdK5hYJZhdKHt0huO95SV5I8C+z4aMN0JGGX22Ey0bDJ6ZJXmsRfO91yZgSgU+HP66X1EXhB5dJ7qjObuX6w+7suezQOHj/9sKUK3mpQaBrMMp/9O1iXWnBC3sOv2z/2bGhB6KHNIZc3wYXFwtV4esU7P/b6kJww/gcLq8M8ujmXp7cmqAnmr3OczLYrsbiHWnWN7Xw7qk53DAuTFnYwFSNahRlxAvnGHz0X8fw3c/upK0Rfvff+ygosZg0Y+Cl6qXPddG400ECN7yn8qS3afn8OnMuibBlTQupuMv2dQm2r8+w5vUon/rmmGM+h3PRaRv1CwSjwhajwgOXXos5ADHQNKpy4LKKEH6/6rapDI3ysM7H5+byyJYEte02iUy2qk1OQGNqocX7p4QONGL0pKSh1yPpetTkGQdKD9uePDhy8TykyBZxyAbd8rDBZ8jU+eDUHHxGjNXNEE15eK4k4NepihjcOyXIhHzV62e4Wd0ObV2SH1yf/e8lTYL/XS6ZMxa+Ph9yTInPBx/6s0QTMH8OPLpD8JPlkvFlgp9dIcmxBJ9ZIPjv1yUbpwo6UgebNOZFoOSQksMdacGtT8oDOQK3zxRHWWnOqo7Aw9ce/O9vrIENbdmf/+NSwezBb3lWTkKOpfOPs/OYU+rnoQ09rGlMYWsBPCeDm0rQJYP8bHkXSxrS3Ds1TDzjcMx9XoqijAilFT4++sUqvveFncRjOr/41h6+8F81lIzuPwvU2+Ow6KkWhDCZNEdn/hUn33U8FrV55a8deEik9HBkBsgQ6w7w1APNfOE71ejnURuDs7o00TfH2PezHHDPraKcrHklfkaHTVY2p9kbsxECJueZzBplURTIvv3bkg6b2jM8tydFwvb40vxcSkPZrYX7ez0K3SA/R6Om0OobUApM02RMzuEfoQn5Fp+ak8tbrRm2dtukbUl5jsGcIovqPLVdcTiaXyz43S3ZnBGAK8vh1zcLDhZTEjz3Lkl9TFAckORagnlFkqoccViy+jvHwWWlgpJAtkfPj9+RTXSffsSqf5Ef/ud6cKRger7k0B615SHJJy8VVIaPvrJyRTmUBSXjZ6gA5UyaX+rngmKL1a1pHtocY8VuF2n6cVNxhCaobXT4SmMbPhM8R6JrqiKlMjRG2lbrc8nkWWE++OkKfvXtfbQ1aPzim3v4l2+NIxw5/Lv81Wc7aKmXCM3mlrtHY5xgA9hDtTbZtDX17dg4hCczNO6Bnm6HglHnz2Sn2j+lDMpwTN4bbJ+10pDOzdUBHBkA5IFk11jGY2ePzaI9cZbWp2lpT6EZBi+WWtw92UAIcSChWTN8TCu3+NKFkQOJ70LTONoOxIilc0VFgEvLfH27wgTaIJ+sLrKrNCpcP7Nqjpj4OrLaq18XTMiF/YGDoe0PUA63f8XEpwsuGLjJMPOL978fDn9f5FqCu2r6X77fglJYUKq2FJ0NmqZxYWmACfkmi6sC/G5jDw0dfjzXwc0k8XQD182usCqKcm5YcH0hLfvS/PH+NrZvyPC7HzTywU+X093pEu1y0DR4/uk2NKEz85Ig0y7IOaXH8/k19KPGOBqmD6zzLOdQBSnKCCVp7HVpT7oUBY4/ayGEwOxbAUm5Hts6bd5oTrG8MUNtYxzXFniuh0Ty1NZeLirx4wlBfY+DlB54Di0xjbqoy9QCi7B1/OVWUz+xJdnutMvuHhuJGugoynCV5zO4tSbMReUBfr2ui7/X9pIRFtK18aREaOd3yVBFOdfc+v5SmvelWf5CjGWL2qjbHqOjNYOTEkjNw7XBsAS33jvmlCtxlVVYTJ0XZt1raWwnQXYsINA1i4suj/RbxTnXqSBFGXmEhpQuKxsSPBDQubIyyOR8g5zjLLG6nqQ+5vBaY5KX9qTY1pIhnfboq4eNpgmk67CvzeUX67pJe4JtzelsGWPHY3eLx/fflFw9JsjCCj/VuQbWCQYiR5N0PLZ22SxtSPJiXRzP9fpK2Z4/+04VZaQpDep86aJCbq7J4edre1i3DzKpE2/+dqp0wYEcOl0TqgeTogwxw9D44KcqaG/exbZ1Ho27bSRetggKgBBomkYq0b+R6onSdI17Pl5BPLqXLWt1dKGD5jHvigA3v6/4lO9/pFFBijJiGBpU5Ri8ZWVIpjWivZI/ru9mTavNggqLqyuCjIkY2f4oR9Ead/np2h5W1ieJJ9y+VieSYMhkYpGfrqRNXauD57os2RFFSg2JBkIDAY4j2dmYZF+nzZrWFNeODXJBsY8xJzmzkXEle3ptVjanWVSXZEdzAjsjsqs+pqAq18JSAw5FOSH/vgr+zzQoDhz/2MHaF8t2cg/qGiVBDV9ffyVNE8wa5eOn14zijzvj/Hx1Fz0xDbzE0D34cTTHPRpjLtKD7mSGuh6bUQH11X6uGI5brc9H/pBOKMdEE2kcL3Pg8mz9E4mbNvj9L5uYMD2I/xQ/fyWjfXz+v8axdX2CjhaX8jEmE2YEz8t+KepMpgzKcDhBmrrGjWODeFLyZlOAhvYMjgM79iWp70izvjXDJeV+5pf4qMm3sI7oEush2dqeJp4USNcFTSM/V+eWSWHKQzrP74mzp9XFk+C5GmgahiEoK/RhaILGzgypRIZUymHVTpudnS5zStO8ozrAzEKLwhM4MW3rslnTlua1fUk2NaeJ9joIoaFpkvJRfuaUmlxbGcA/BCs1inI+eW6z5IWtcO0kccrBSsrxWLQnwWNbUnT0JokETeaXWtw9NYeK8MHJCSEEt4wLsrrF5uVdIJNnJkhZ25bkx2tjbNidwAPq4x7/+UYP90x1uH18CEOdP5QR6nRMNpyKxroMG97swZVHL4rheDa7trjs2Z5i0sxTLxPsDxjMuihyyvcz0p1ckLJ/7CdlthnAWSSkHHQCtTKyCSGYUmhRkaOzoDzDoroUKxpTdHSmSKcEq3fF2dpqs7w4zZUVPhaMDjI6rB9IWi8JGdw2OYdfroxiuwIhNCI+jRxL8FxdgtpmG+l5CE1DALl5FvPKfLx9rB9L03h4c4xVuxw8L7uk292T4dWozbbODJdV+HhbVYhphRb+AVY/pISWhMtbbWn+tjvB5tYM0agNQiDwyM21mF5kcktNiNnFFgV+NYegKCfDdU89WMk4Lg/WxnlgdRyp+5CeRa9t8sdOm1Ut7fzHpYVMKTxYZSfjZnswnal8sm3dGf71lXa6EiYYPoTngNBp6nD5/ms9gOTOiWqQo4xMQznZMBQ629NkUi4Df74lSJ2ejjO/5fNcdsKjIIHEctMILQzo2P6z25xOAGnH259bpJwHciydS8sD1OSZzCmxeH63QW17mt6oRzwBb9Ul2N6aZE1LhmvGhJhdbFISNDA0wTvGhvjbzjh1zQbSc2jq9vjd2ii9cReEjtAgEDCoKfZx3dggC0b7GR3Wybjw113xAyXFNE3LrsboBg2taZ7utlnXZnPNmCAXlFhMyLPwHRKsdKezwcnLe5Ksbk7T3mWD0EGC3y+YUBzi2rFBLin1MyZiHNb8VFGUk3MqwUpzwuPJjd1ILUieGeOmiTns6bVZvD1FXYvOI7VR/nNB0WG3kWew4MWfd0Tp7JVIJ8H88SFmFgV4sjZKdzSD1C2e3trLHTVhtPNwi4hybhiKyYahkptvopsC14ajByoCiUswogpnDKUTDlJ0TVAR8bOxx8B1NJa2eNw27eQe3NI0TnXWaVl9nPa4izBMfIZgVK46KZ/rDiwDBw1uHa8zrcDitaYUr+5NUNdpE49Bb9xj8dYoWztd5pSZLBwdYHqhie1Cvl+jDon0PNIpjXTGBQk5EY3Jo8LMKba4tNzPlAILvW/L2MqmBG82prKxsG5QmKdTlWexvcOht8cmk/bYsteloctmSaHFwqogF5dYFAU0NnfYrGhJsXxfhn2tCTwvm+Pi80nGFQWYX+rj0Q0RalvgRwd+S1XdS1GGyskMdnZ023RFHTQtzicWFPKOcSFiaZemWCs7Ov1sbksSTTtEfGdnxbO+xwU0Ro8y+e4VRQT6Sp0/8FYc25F0xFwStiTcv/ecMoIMh63WZ9twCFZKK3yMrQmxZ2sGx0v3u17TDEorTcZNHCb7084RJ3x29RuCK6oC/GVTB5pl8npdms+/sJcbxgTQLXNQDRmFEBg6rG3JAN5RO/Q2xtLUdabJOG6/BZL95WS3tffy8HabVBKMkJ8LK9IUhM6fJjdn0nBK3jv8ZCWYkG8yJmIwb5TFsqYUL+9JUd+WwnV0mtpStHZnWNucYV6xQdKF7a0ZpOtkVyuEQNehapSf66uDLBwdYEzEOGwVJG67PLY1TjSRXT3RdAO/KbiyKsCsEskfNjr0xjyk5xLrhfW9Nru7XFYW61SEdFY3pWnq8bDT2UGFEB6jiwMsqPRzVUWAiXkGj244e39PRVH6sx23r2jGwXOBpoHRNwlmuxLnLM4lRAJ9jZAPfH8KwAMkhjWaqA3XPgHZCY8IiAhGX8Dy3eXw3eVqIuR8dMmDI/d1P5vBij+gc8dHyvjR/9uLl7LwDkme14SFZWm8+x/KCeWobdpD6SRWUnTmlkW4YlKK1xtN7EQvr9ZJFu/ZX8958CTZN51meEihQ9+s9ZaWXr6yrJP6bg2kd/T71bRsRQUbNF8AU/bygenFhE6h06cycvQ/WQlmjPIxNtdgZqHJKw0my+pTdHbZuC7sa03R2gXSEziOB5qOEIJwSOPSMUFuGBdkdpGP0FH6n6RcSTTtIQRohoF0XVq6PP6+K8mFpRZ+UxATGgivL79EEOvNsCrmsdYQZFIewjARAiK5JnNKLW4YG2RWsY8Cf/b9uvz9Z/ovqCjnpqMNwnT9xAc1lXkWfgtsfPxkZSe7ujO0xF0216fAgLJinVzf2fu+uaoiyKu7Muzr8Pj8kjamF1o8VRvFdnQMNVenKENuziW5fOzfKnni54007nXRhIknbUoqLO74SAkXXZV//DtRTshJhXy5AYPPzy/gP99oY8UeHU9KpHNyyUJCZHtT5Pr9WEb26dTHXLrSOp7r4bkZBko2EUKgmX5y/Gm+fEkRU4qCai//eaZ/sKJz2eggEwssZo6yeH53io0taeIxBztDNugV4PNbjC+2uLrKx7VVQcqP1jq+T8jUuWdqiOdDadY2SaI9Ho6jUVsfp74rTTrtZO9WE+TnGqRsSMQzSCnJONktjX6fxqQSH9eODXJpmZ+KsKEKPijKaXYywcl+4yIGN83I5en1SbpSPh5aE0NoBsIXImRlePeU3AP9Sc6EIx/qbVVhVkxI8efaFKubfKxuAmQOyBhTi1v4zhWFFAWyFcge3NzDz9+MYWccdEPnCwsi3D5BJdWfT/YH78vfPzK+eIZqsmGoXbgwjymzQ+yqTdHd4ZKTLxg/JUQkT62gnA4n/Vctjfj57pVl/G1HB/evS9LaAyAOWXoeHGGYzBltck11PkZfkLKwIsgLexK8utNGaAbS698gR2g6puHwtsoUH72gjMq8AJo2Mj58J2p4LM++AcAlbwyH59Jf/2DF4MZxISbmWaxsSvHQhm66otmVjmBAcPPUIG+rDDK1wBywr8p+fl1w3ZgQE/J9rCixWLYvyfrGNKmkJBZ3wZOg6eRGND42N5fWlOSxDV30xiRISSCg875ZYRaU+5mUbw5JA0hFUQY2FIOZgKHziek5VIZ0HtzQS0eniyY95lRZfGhqPheVn7miMVKCdpTJus9dUMD80iSL6tO0xD3y/IKLS/K5sTpERO0qOCcMp63WZ8twCE4OFY6YzLzo/Or8fracUugXtAzeNbWEd00dqqeT5fNZfPdt5fC2ob1f5fyiC8HkAouxEYNlDQm6Yw5CQHFE466JYSpyBneScaXE9STVEYOKcIh5JT5eLEry6t4Ue1sSeCK7lev6mhA3VYdJeZJl9XG2JF2k51IU1rl3cpiwGjQoymn39qlDN5gJ+wzunhyhI+HwWBxyAy5fuyRC6RnMfZSeR9px+fflXXx0VoQJ+Qcf29A1rh4T4qJyP7GMh18X5KnS5co5YrgFJ8qZp85mI8BIWZ49U050GdhvaIckwgt8hkZoEO/8jCfZ2WWztdsmmnIZFTSYWmAxMc+kLKQzt9jHc7t1XmtwyPN5vHtiDoYuCGoQNHWySaxgGkIFKIpyhnz1gqG/zwK/jtA0TF2Sd8Y/yxLP1Vi8M8Hqhhi3T83lQ9NyCB9SVSxs6oRNdY5Rzh1DOdmgjFwqSFFGtMHOtHiHFF+QZHdoHUvC9nhye5xX6lO0xl0yDgQsjapcg5vGZnNLLinzMybHYFZxhoglGROx+u7/THZLUBTldDtQtVLKs9K/WEoPz7bpdQ0eWtPLG41J7puVx8VlPgKGCk6Uc8/pmGxQRh4VpCgj0ulcBvak5IW9CR7aGCfa6yA9D02TRKVGW5fN3q4UpWGdOaP8lIcNbhqnBgmKopxOAmFYSNfBs122t2h88flWFtaE+MDUHKYU+s7ZnMzz3fmci6IoKkhRBmU4Je+d7mXgjpTLwxt7iPZKBC7zxgaoyTfY0mmzfm+Kli6dp7bHmJJv4Tc0LF0NDhRFOV0Eui4ZlStp6xZgBnHTCTxN59WdNmuaWnnXlBxuqh58np2iKMpIoIIUZcQ53cvAO7tt9ramQbOoKbH4v/PyKA7qNMUdPtPVSmdc8EZdnO6ZeZSGVaUuRVFOIyEwTI3vvq2EuqjDo7VxtjcFkJ6Hm47T4/r4zZu9/Glrkrumhnj35JzjVixUFEUZCdSZTFGO0Jtxsw0fERSHdCblmxT4daojBpYhQEoSSQfbOwub0xVFOe9I6RExNW4cF+K7lxdwx8wgPtNDt0JI10Y6Dp29kl+sjvHxF9tZ2pA8209ZURTllKkgRVGOUB408Pk0pJRsbE7y190JtndneGxLjPZeG4RGSX6AkKm2eSmKcmZk+pL3R+cYfGpuLj96ewkXjjHRdA2h6Xh2ikzaZkN9kn99qZkvLWmlrjsDDNQOWRkJPrTtogPbrRXlfKO2eymDMhxyUc6UMRGDi6ojvLYzTXev5Cerusjza7TGXGxbR9Ml11eHifjUx0dRzivH6TB/8OrBhwVCDnysEAKOUivQp2vMLfUzo9jHC3VBfr0+SmOXjmu7SNclnRK8sDXFyn3NfGROPknbBSFP6HkpiqKcbWqUpShHCFk6982I0JnuobbeoSMq6ehxQAhMS+OycX5uqQliqGo6inJe0DQBAqSQaMcolOFKCUJDP05BDdnXQ8kTOgl34ILlB0sfa4ijnG9MTXBDdYhLy308vDnGU1t6icWzx3lOhp6YyQ9e6yJgebiZbGNIOHONKBVFUU6FClIU5QhCCCYXmHzugggvFJlsaM8QS7sUhU0uKLa4ujJAWVh9dBTlXGNpR98BXRLU0XXoijq0J1wqI/2Ps6Vkd0capI9gwOBYTekLAzrS80hmdLbuZmZYAAAgAElEQVR1pJlc0P/g3oxDa8xBCBOfpRE5RuGuPL/BJ+bmcUGpxcObe1nb5JLJ6HhOBtf1iHsG0nWA4y4GKYqiDBtqpKUoR6ELwbQCi7KgQXvKJeNKgqZGsV8jx6f6oijKOcfz2NyeoSvhkB88/KvxglI/BVYXTUmLH63p4hsLirCOqKD12JYYe1sdhKkzq8pPRc7AX68zR/nJj2hEUwa/3RRl/mg/pcGDUYhE8uDGKE3dEgyNeZVB8gZx3rm4PMhFZQFWtaR5uLaHFbvSOI6G59jA/u1jykhyPm21VpQjqcR5ZVDOmeQ9IdAEDGanlhCCwoDOpHyLGUU+xueagwpQhBBqMKAoI4CU8kDKh2eneX1Pik8u7uCFusOrY+X7De6YnIsQkiU7U3xxaRtvNCaI2i6b29N8a0U7D63pAsNAEzY3jwsRNgcOUvJ9OndOzcNzbRraPT73chsPb+7m9X0J/rorxmdfaeXRdVGkZmKIJO+emIMxwCrPkYQQXFjq5xuXFnLf/AIMHcSht9UEUn31K0o/e2Pw0Vez/z+Q5+qhLQn/tRae3QNrO2B3LzQn4EsroHWAwnpfWQmvNGZ/XtwIrw7wL9W3/TNhS56p638/aVfy4ZdhWXP/61xP8s9LJX/de/jlP98M3183iD/AMKRWUpTzivRcOhMeu6IOc/wG2hAHExLJnh6b1l4b6bnZy+TAe84VRTl7AoZAN8ATFtLJYKcdtjR4fK0txd92B/jorDwm55sIIXjPlDCbu9K8tDXFkp1pVuxNYhlgO5K0rYEwEcLlugk+Lqs4fqfZ90wKU9uZZtnODFuaPba3RjF0iedp2I5EaD50zea+eXlcUOI7od8r7Xos2pvi2e0xXNdDen2TJ7qJkJCjKhMqSj9dadiwV5KYPfDn45ldktVtgnWtYHvww9WSf54n8GnwylbJv8w6+m1f3yMZkyO4qhy++KJEaIeXsZCA58HjtwvG5MBzDYL/WirZ1Cn40tyDx7ke1DZImsb2f5xf1gpW7Zasa5B8v28B7n3TBQ+tkUgPnt548NiHbxGMzTmBP85ZooIU5bzguBLNMHBTCTp6NL61optbasJcU+WnPDw0XZq70g4v7Enxl50xGrtspOugWX4c1U9FUYaleSU+vnldGb9c18OeDt/B6lgJWLYjzao9+7hxai4fnpZDccjka5cUUBKK8qdNUdKeSTrhAhLdNAmZNu+dmce9U8KYg1j1yPXrfPWSAu4PRXl6axLbMUinbRASwzQJ+Ww+eWE+N4wLoQ9yFSXpuLzVkuZXG3rY3Gjj2i5IgabraIbG6AKD+2bkcFVV8BT/copy7unJVuweMP+rNyOZWSSI2RBLS+qigglFUBGSvNacDRrufe7gpOS3LxeUBuCNVnBd2Nwp2dyVPe7zCwQ3VB08dkMnfPxvBx/rneMg4wr+d6XkjmrBpLxjP/eWJDy6TjJ3LFxdKfj+a5JPXSpY1Qo+H3zvKvh/r8OsUsFdNVAeHBnV/lSQopwXLikPsLMnSY9j4DoOe1vS3B+XvFKf5JbqINeOCRC2Ti7XJGV7LN6X4C87E2xuc4jFbDzHRRgmAR9cXhke4t9GUZShYOgaV48JcUlZgD/siPHwxl66ugEh8JwMSanz1Po4KxvTvH96DldW+vn03HzeOS7I4qY0te0pDA0mFflYWBakKvfEJjzy/Ab/Mr+Aa8amea0pSX1PBkODKUV+Fo4OMvoYeS1H2tWT4VfroryyPYorTTzbRjNMQFAQEdw0Icg9kyP98m2U4W3/NmuVmzK0mhKwqP7wXQ6bO7OD9mfqIGAcft31lYKYLXhqiySVygYdvXGJzwePboOEIxmVD1ePFTy7XVKSIxjlh/Wd8N2lEk/Cip0wqm+R9dtLJN8+znN8bw28vRLyBrGQWhKAT10seGYXPLQZcsLwaG32OiHg6ysEjifZ3AZTL5RDvovkdBFS7UUZti55MPvSLH//yHgzDWedKZfVrSn+uCPJW3VJXFcipYdh6oQCGheO9vOuSSHmFllog5y1BNjZ4/DIlh5er0/T3evh2A5CaGhCMr7Mx3sm53BxmY8SNTBQlGFvY3uS326IsXJfilRax3MzSNdGt4IgbeZXh7hncpgLS32DXt043VrjNi/Wp3m8tpfmLonnpEGCZvjwWS4zy0w+ObeASUepIKYMf0MVpKjxxOHeaIF/ffXw4a9jZ7dTGQboR8xZfvtKwcUl8PB2eHCDRNOgNwZzx8BHpwk+9pxkbLHgoWvgmqckH5ghuHfiwdu/7UnJXdMF/zAFLn1Q8sELBZeXwi83S7Z1wPcuz74uNbmSh7fDk1uyt7tqjKAqB3765sHnmslkn+P+U9CNkwWfn539+fqnJQVBwczi/r9zXQ+s3yt57V5GTJCiRk7KeaHAr7NwdIDJBT5eKLZ4dmecfe02nqcRjdosSUs2tia5sSbMbTU5lIWOvarSnnT5e12cv2xPsK/bJZOyQcvmuIzKN7hxQpBrxgSpDBsEjOExmFEU5dimFwX43lUB1rYmeXJbkle2u7imHycVRwjByt02a/Z2ML3c5K4pYa6qDJ2159qbcfjD9hhPb43T2GYjdAPpZNCsAMJLs6DG5H2TCphb4lOFPBTlCBeXwKvvOfi5kFJy05+hswcmlwl+dVX/27y8D365SvKrdwj+7Q24rBI6U5Ln68FxYFeTpDEuSMRh9FFODb02rGmXSGBJA2zvluzohHgS7t+SDUJuHSeYli+Jjxc8u0PSloSbx8K9fUGI7QoeXC2ZWwUzirKXzSg4fOtWPCNpPEryf3dq5J0HVJCinDd8ukZlWOPOiWEuKvPxzM44i/ek6OzWsNMuzSmXR1NxVrU4vHO8n6sqAwSP2AKW8TzebErz2NY4G5pTJOMOngdC1wkFBZePyeHW8QEm5FtEfPoI2PGpKMqRZhcHmJDv44rRFg9vTVLb4APp4WbiSMPH2nqbbe3drJ6U5t5JEUrOcN+kV+rj/G5jL1tbbBxHgPSQnoMwTCoLJO+fVsiVlQFy/eorXlEG4/kGQWeP5LaZgmfWS95oya6cHGphmeRH12W/1aWEu2qgJlfwVrukPSVY0yj52aZsEvyE3OxtbE+yslXgOPDkWklzXAASXUDGzSbLS7I/A3gS5hcL5hfDm315LpPzYHJe9ueELXlwNSwoF9xZffTfpTsG8XT/y51jNI4drtQZTDnv5FgaUwosSkMG144J8sz2BIt3x0ilDJJxm00Z2NmR5KX6FHdMCHBZ35TI2tY0T26P8+a+JL1JsFM2QjOwLJeLxwW5ZXyAaUU+8n2a6kavKCNcyNS4blyYeWV+Hq+N8/uNXSTSfqSTQbqCuKfz5NrsRMf7pka4rcZPwDi9X6mNMZv7N/SyaEecVCq7ZRVPIgwLn+nwwbkRbhwXUs1mzyEqF+XM+M0mKC8SfGE27IvBd1bBH2+Qh61Cbu4S/N8XJJ4HrgMf+Xv28punCL45X/LDjYI/rM/mpuxPRX1gq+CBNyUCuGay4KaxkqXb4XNzIc8S/HgjbG6TfG62wNSgZAhqWowpEswr7X/5zm7Jqt2nfv9nkjqTKYNyriXvaUJQ6NfJtTTGRUyuqAjw5LYo6xtSeJ4k3uuxPJViQ3OC62rSmLrghR1xuhJgZ1wQOrppMKbI4J7pBcwvsSjwG1i6Ck4U5VxS6Df4p1k5XDfWz/2bYize4WBnNKTn4bouTe0uP1jWwd92WNw3K8L8ssCQb/HsSTs8vSPOYxt66YqD5+zvHq9j+gUXjfHzkRk5TC2w0NQEiaKckGXNUN8q+c612c/OF+cK7nxa8sBW+PDkg8eNj0g+fbHgu0skH7tEUBqEry+VTMjNlvi+fSw88RZcXnnwM3jbWLhmtOC+RZKqHGhKCAxD8uj2bMni/e78oyQvAn+/rf/nd2s3x63utd/14wW1HfDEW5JLa7Jl1gGW7pYUhAVXTwbByFlRUUGKcl4zNEFRQGdhpZ/po0z+tjvBM9t6aeoAx/Xo6rb50+YECEEmkQHNADSK8gQ31IS5qTpEWcjAr4ITRTln6ZrGhHwf31rg49WqAL/d3Mu2Fgfb9pCujWN7bGnW+HxzM5dPzOWjM3OYkGudci5IzPZ4ozHBbzfF2FKfRAgN6blopommCcYW6dw3M4drxqgKgopyMv5UB99/XVJTJlhYlr2sLAh3zRb8aqWkJQn/Oju7ohIyBdu6AQG1XfD3OijLF9w6NpvT8r212dsv2im5Z6KgLAjFgey//V5pkBTlCgQwpULwvcuyAcPjOwR/2d4/eNjYKvnILvjbnRCxBj6fLG2G76zM3j6dncOgtg00kb3MtaErLlnrws1/gS/Mh8uPstoy3KggRVEAny4oCxm8d1KYBaN9vLQ3ydNbYnRHfaSTNgBCMwmHBFePD3JbdZAxuRZhS1N5J4pyHrmyKshF5X6e2hbj0doYbZ0eQjfx7DRS11myw2ZTawd3Tsnh+io/o3NOrg9TbUeG39bGeLW2G6llc2LQDYSmU5wvuHF8kLsm5ZCn8k4U5YS5nuQbbwn+vkkyo0rwP5cdnnz+8Wng0wT3r5Ls7hH8cIEkYAjuHA9bOgUv9yW6lxQIljTBonrBmj2Sz10u+O1GyX0vSh65HnItSDrZxPq0C2/Vw7umQ0sCOpPZ2wFs7To8QPGkpL4L0mn4hwuPHaAA1ETgwzMEe2Pwh/WSMSWCdx9SXex/V0vGFQpuGHvw+JFAnd0U5RAhU2NCnkVF2GR+iZ+ndiRYsqsX6UnmVvm5a3KYGUU+QqZAVxVzFOW8FDA07pka4arKAM/tTfBUbYL2qI50bNxUjHbPz89e7+LJzTo31gR5z8Qwo0KDC1ZqO9M8vKmX1+rTJFICzxMgM2i+ILlBj1snhrhzUliVNT9PnGtbrYeLRQ2C5zZJ7pwt+PQMedRVz/umQEVY8I2lkqXNAl3AV16SVBULPne5YEYB/GSDZFWbYOlOyZcXCm6ogstKBff+XfLXvYLLy+C9T0uQUNqXb3JHNfx0I3RGJY9szl6WSIPvkFOEJgTTSiUfmgJzi44/1igLQkCH36+VlBUK/ufy7GX73b8Bxudlm0SOJKpPyjCm6pqfXY4niduSFU0pbA8uKbPI8emYas+3oiiHqO1I8/DmXl7ZmcLxNNx0ItsvybTQhGRMoc7dMyLcUj3wtqxY2uGJbTGe2hKjtdPpKymcRjP9CGwWTghz9+QwM4t8Ku/kPKL6pJw+6zpgVuHxj2tOZAMMKSU7ouJA5a5DNSUODwqaElAayAY/K1ollSFBeejgcW+1S9LuwQpiu6KwIwrXVRz7uTie5PGdgktLoDrS/7q32uHC4v6v8d/3ZssizxzE7zucqCBlGFMnleEh42brmvtU3omiKANIOh4rm5I8sD7Gpn0pADw3279EaDqWDy6r8vMPM/OYkH/4qsrzu2PcvzHKnnYXx5FIzwUhEEJSXRrgvhlhLikLEPYdu3+Tcu5RQYpyPlPrxYpyHKpil6IoxxMwNK6oDDGv2M8TO2L8fmOUrl4fnusinQxpV/DqdljZ0MStU3K4Z0qYaAZ+uzHKi9viOA4HghPNMAgFJB+Znc9N1QGVd6IoynlJraQMY2rmQ1EUZWSqj9rcv7Gbl3elSCQkCInn2AhNR2gaRbkaGUcSTQikkwFNRwiNQEBwSZWPj8zIY2K+dbZ/DeUcocYTykikpmeUQVHJe4qiKINXGTH56qWjeFtVnN9tilHb4mDrJp6dwnMytEf94Emk56CZfnTDY+Iog/dPi3D1mNDZfvqKoihnnQpSFEVRFOU0ubwixMVlAVY0JXlgU5L1ezJoloWbSfUlxcPsSpN3TwyyYHQAv6nyThRFUUAFKYqiKIpyWpm6xoKKEDX5fhZVmjy+OU5Hb4gcn8sd0/J4V02Q4kGWKFYURTlfqCBFURRFUc6A0pDO+6dGuKw8wOuNKeaV+JiUZ2Lo2tl+asowpbZaK+czFaQog6JOkIqiKKdOIKjJs6iOGGiaCk4URVEGos6QiqIoinKGqQBFURTl2NRKijJipF3JsmaBqcHCsmMf63iSxU0Dl1qsCkPYhM1dUBKA6QUHr9vaDQ1xmJCbPe5YutOS1e2C8iBMyT+BX0ZRlBFhoPNOWxLWd0K+TzK3SFDbBY0JuGCUZHOXIOEc/f72Hw/ZjtcrW8HxYHI+XFEm0UT2ujXtkq70wXNYyIBJeZJ838HL9j+3Q1k6jA1D5XHOXYqiKMPdkAcpUkpsT5J2JZ6UiCEoyS0lCMBvCExNQwzFnSojTlda8JWXJKYJS+469nsg6cBXXhq4BdDbpwpqcuEnyyVzxsJPFx68vwe2wOJtknvmCT4+7djPaUt39jldWgPfv1S9LxXlXDPQeWd1O/z7K5Jx/7+9O4+Tq67z/f/6nlNLV+/pzr51FpKQhLCHTUB2wQXQ0cHrIAo6juO4XL2K83PuyOB4XS46d2DGUUcHvS6MPzfcGBEUEIQokAQC2Zome0g66aS36qqu5ZzP/eN0p7tJJ+kkvVTS7+fj0aTqnG+dOlX041R9+vv5fD9THfddA99Yb6xogn++Fu5cYbR3DH68WZMd///rjE+sgCebBu6bVAffudqoTTq+tMqxeffB17Dl84zPLIfapDtwboPRNenkoFRrGc+GPUjJh8bjO7L8x9ouMnkIw+C4j+l5PhUJj9uWVnDpzCRJdQAfdSda8V5ZDP7mwuj3pLENHl5vVFfBO0+Lti2ZYKxv1e+RiAyPjyxz3LzQWFQDHzjL0ZGP/lhy7zPRH+s+cEF0vZmcgid2O55sMqZPdHzpkuiPcF9YBc9vNb6y1vF3Z/cd94pFjlMnwK4MPLzJeGYTfCzvuPeKvjGxGPzjZdHxX8nAV582nmqCLctgTtUovgkiIsNo2IOU0KCl29i6J4cZpHqmpo+lsX3vjEk2V8Q5aJlfRnj0h5GT2Iv74fMrYXuLkUzARbMdf3uWkYo5bl4QjXn0FXh4PdSk+rZBlJ4xFG/9NSRj8P2ro/vfbYQfbjQ+fJajqmfV0EwBPviEsWYHVFXAp85zvGbqcL5SESllP3wZHt8On3uN4/qGaFt73rj3GXCOftce+EHPDEoyBnVJoybh+Ptz4ZFpjpmvStO6ZDpcOyu6/b7FcP1PYf0O4/l9jimpaLtzcNn0vsd8ew2k0xy4PomInIiGPUhxPT9lceO188p5/+k1YIbBUaVpmRkOwDm+tqadx7dkDxxbBKA5Ax/4TfRXyuuXOLZ0GA+tN/Zm4d8uHfpx1r4CN/6q735b18BIuLk1SvXo/e3b2w0trdCe7/sS8NxWWD4Prl3keGCd8f89atz/Zkd92fG9RhEpDcXiwOtEtjDwOrErY7S0QqZoHOmT6rLp8LUkbN5tvP6HMHsSnD8d3jL38HVwtUnHkunRjMvGNg4EKUEAt6+Ibm/rgM40vPMcXX9E5MQ2YoXznudRHvPY2l7k++s7aS8Yjuiibgb0Xt+d69kAOA7UsBiO2oTHzUsqKfe9vvEiPe5rgkIBPnyR47+dAuD48y5YvcVoPhemlA/tOMUC7Ovo+wU7lgzFWZMd91zce8/xyxeN3+6Em+Yf/bFEpPSYDbxOHENywAFTy+Fbr3fcs8ZYtR22NBtbmuFHz8HtlzhumHPox1Ynon/b8v3OLYT1LdEJdWajbX/YCX8+HyYqUDmhnWip1iLDaURX9wrN2JEusnpXjlzew8IQ8PD8GGBYkMdzIYYHXgJwhEERCHGeT1ki4PLZ4VHPwsjwK8UL5NbO6EO5/6pa82ph+x7Y1Dn0IOWMhoGF83/7x6hw/lAG+3KyoN/qYEvq4JfA9vTQnl9ESt+rC+cf3B4Vzh+Llm5IevDFCyB2EaxugW9vgGc3w7+uNG6Yc+jPu1d6riuzKvq2xeLwyzf1pVZ/6A+wcrPxw5cdHzjC4h8iIqVqBIMUwzlHzHc4QsJCETBiiTgzJhS5ck45506roT7p05It8vTuHI9syfLK/pCgWMCCIi7h43swLEuEyUlncsoBxq4uOLM+2rYnE/07bYgBylB4HuRyUAiNuOd4uf3gLya7+gUkO7t6z2/4zkFETh7/+Kzx9Ka+WeBzJsGyOuPyLZDJQhAOnjL2xG7YtMuIxeC8yVAIDz62c1Gh/crNxuaOI6eeiYiUqlHrk+I8n/Jyn+sWlnPLkmqmV/gH9s2vTXD+tHJuPKWa/7uug4eaushmBrn6ivRzw1x4YC3862oj5jk2d8LGncaMSY6GyuH7cK6phL374R+edcyogBd3Hjxm407jm+sd0yrgx2sNz4NLjtDLRUTGp2tnO57eZHz1GWN72jGtHB7b6QjNWDzDRX+c6/Fvzxnf3+BI56F5X1Tf+bZlUb3J7p4/ygQBfPKP0e2ugvHctuj2pdMVoIjIiWsEgxQH1lMA7zySKZ/XnVLG+5dVU1sWzZ68uDdHcyZgSoXPaROTzKqK8ddnVFMIQ377UjfOiy7Ix5X8KyetpRPgE5c47n7a+PQj0e/I3KmOL140vOmBHzjD8dnHjUc2GKkUvGae47GNA38nl8x0/GCd0dUFvgd/fb5jrpb+FJFBXDcbWi5wfOt54/410bXEAWc2wGfPHzh2byvsJZo9mTnZcdNC+LN5A8eEITzek6LqOaiphrcvdrypYRRejIyoUky1FhktI5ruFRXCO7CQ+fUJ3rKgguqkx1O7svz7mjQbd+UpFgJicZ/F0xO8//RKlk8t44b5FWzcX2R3W/7ACl8ytsa6eM86Oqk+9Rx+B/h33oF1XE/21HO4Brjuzjtouf5G4he8lspcR7T/pmg/wEV33sFTPfczPY9P3HQ9b37tOby593hn9o2/s2d/7/jL77yDy992PVsufAsz27cS67cf4LE77yBxTnR/Z/Uspnz8L6le8PaxeJtEZJhNLYcVtxz8GXTtLLi23/Z/usjBRQPH1CQcK24Z/LjvXAjvOAV2ZaLu9LMqo6XTe913DRxpNvhQ5yYicjIY0XQvMyMwqCjzOWdqGfNrEjS2Fvi/a7tYuy2LWQBhSMFCXtwW8t24o64sxuK6OGdMjtOWKWLKp5VeiSQAzvMOuj89FZK1HCSSg+4/3vtxD2Zldx/x+DO69xBzmvkTkSPzvf59UfRZJyLS34imezkcYWBUxWFujY/nwZqWPBubu7EwxHrXeg2KhMD65jxr9+WZV1vO3Jo4zyayBGGodC/BVVdRvuWFAdtK/b6IiIiIHJsRTffqqSjB9xxlviMfGPuzRbq78wf3PQlDujI59maLFAOoinkkHEr3EhERkXFprFOtRcbSiKZ7ORdFGYXAyAbR8q3VSY94IkaxGAwMVJwjkYhRFffwHeRCCPp3d5QxpQukiIiIiIwW78hDjvMJPEdXEbano9SuU+vLmDu5HOfHcC56euc8nOczb1KKxXVJAjO2dxboKoCnIEVEREREZFwZ+SAF6MoWWb27m22dRZbVxbn51BSzJsfxk0n8ZAo/mWTO1CQ3L0mxpD7Opo4Cq5vzdHUHKiUUERERERlnRryZo3OA5/FSS8B/be7ivadVc3VDBQ01cX67tYsdHUXm1MS5qqGC+TVxMvmQX7+cYVNLgOdFHcVFRERExhulWst4NirNHC0MyWYL3L+hi2TM8ecLKllUm2BRbWLAI/Zli3x/Qxe/aMyQzRQpL3dq5lgiVLwnIiIiIqNldJo5OodZSHt7nm+t7OCPO7t5w/wKTquPUxHz6MiHrN6b48HNGZr2FMh3F3uO4Wt1LxERERGRcWZUZlKimZBoRiXfDWu2GS/uzBP3Q5yFBOYIQp8wNCwsYmGI83wAzaSIiIiIiIwzozaT0r+brlmI76C+KkF1yqctU6SlPU9gA8eB+qSIiIjI+KRUaxnPRrxwvj/n+ZRX+Fw2N8WbT6liXk2MRMyRKxpNbQXuf6mLx7dkyGZG86xkKHSBFBEREZHRMjrpXoDzPKbUxfirM2u4uqGcsljf6sepGJw7NcbSiUl+Pa2Mbz7Xwd7WAs4p3UtEREREZLwZ8T4pEDVrrKlJcNPiKt4wt2JAgNJfKubxxrnl3LignIrKJDh/NE5PRERERERKyIjXpOAcnjOWTo5z9ZxUT++TQ0v4Hq+bW8HKvQUamwvRRtWkiIiIyDijVGsZz0ZwJiXK1QoCoyrpc8akJJNTQ4uJplf6LJuUoCLl91sdTMbSrY3nHyjgExEREREZSSOe7mVmVMSM6eU+3hBnROKex4wKn/KYESo+EREREREZV0YwSLGeH4dz4LnwqB6d8Bw+WoJYRERERGS8GdkliJ3DeY5cCO0Fw8yivilHYGa050PyIXzxqYqerbXc/Se4+0/Qs+aXiIiIyElLfVJkPBvxJYidg3Te0dQW0F00UvEjBymZovFSW57OnIKRUqELpIiIiIiMlhFf3ct30J0PWd1c4IV9ec6bWnbER67ek2PNnoB8AJ+6OMO6fXkeauriL8+u5cb55Ydcwvhkc+F3FKSJiIiIyPgz4qt7mRmGsb0lx48b0+xMFw/7qC3thWjcvhxgauYoIiIiIjLOjPhMSlSDYhTzAU+8nCEfGO9bVs2i+gR+v/qUYmi82JLja2s6eG5blqAIFncqnBcREZFxSanWMp6NbOF8P2YhhbzxZFMX6/Z085qGFGdOSlIRd7R3h6zaU+CP2zJ0pAMsDHsCE3WcLxUq3hMRERGR0TLihfN9zRgNC0MsDNnfDg+szfEAuQErfoVBgAVROphzUYCidC8RERERkfFl1GZSejnn4XB4rkhFeYxUIkE2X6ArU8Rw4DzMjq6nioiIiIiInDxGMUhxOD9GMulz1swkb15QweK6BOUxR6YI6/blub8xzXOv5MjlAs2eiIiIyLimVGsZz0YpSHE456ip9nnHadW8dUEF1cm+epNaYHpljHOnJPhRYxc/WNdJR0cwOqcmQ6ILpIiIiIiMllFZ3ct5HpXVMd62JMXNiytJ+IOvfFxbFrKe6SgAACAASURBVOOdS6roDowfr8/gCLW6l4iIiIjIODPifVLCEJwZCybGuWZOxSEDlF5lMY/Xzalg/sQ4mPXU3Cv1S0RERERkvBjxdK8QqCzzOXdynNmVQ1tSeG6Nz+kT4zR35HvbOYqIiIiMK0q1lvFsBGdSIhYalXGYWRXH94b2dHHPY3Z1jPJYNBMjY+/WxvMPFPCJiIiIiIykUSmcdxx9NJTyHTHPNJMiIiIiIiNic3uBu55pY393kXcvrebauRUj8jy/29rF99Z3UVce48OnV9FQGx+R5zmZjHyQ4iBv0FkMBzRuPBzD6CyGFMwNabyIiIiIyNH630/vZ9VOh4XGZ/ft5fRJZUx/VXlCthjgA4nY0MoWXu3+lzq566l2ikUHLmBjSzdffu1EFtUnhuEVnLxGPN3L8xxdeWNzW4FcMLRZke6isamtQDoX4ilGERERkXFIqdYjqxgYuzrzhIVuwnyGXHfArnRhwJj7mzp52y+aefsDe3lsR9dRP8fPX05z15OtFPIBQT5DkOtiT6vx8d/vo6mtcOQDjGMjH6QA2XzI6j0F1u/LD+kxa/fleW5Pke6iZlJKxbcW/kkFfCIiInLSMAzvwPdM1++/kX2ZAv+2soM97Y4dLQH/83ct/G7r0AOVn7+c5otP7KdQMMJiAec8nHME+SzNrQH//ZG9NLYO7bvxeDTiQUrUL8WxbV+B+5u62JspHnb07q4CP32pi20tii5FREREZGwUgWIAFhQJ8hlyecedT+znt1vTR3zs/U0d/O8n2/oCFM/riYBcT6DSzZ42+NijLTS1KVAZzCgEKWBhQL67yCMvZ7l7dQdbOwYPVF5uK/BPz7bzWFOGQq6IaWkvERERERkDk8p8bjmjCo8A58UIizmyWeMffr+fR7ZlDvm4XzSl+eLvW8nngp4AxcfzPN57QR1vWFaL8+NRoJLLsKc15KOP7GODZlQOMiod53EOs5DubMjDG9Ks2Z3lyjnlnDU5QUXcozMfsnJPjke3ZNjTFhAGvcGJr47zIiIiMi4pzXpseZ7HrUurKRRD7l2Zplh0hMU8ORLc+cQ+yi53XDQ9NeAxD21N88Un9xGERAGKHyMWi3HbOZW874xa8qGRLgY83uggKBDku2luS/GJR/bxlasmMrtGq371GsEgJeo4b2Y9HeMNC0OK+ZBd+4zv7e/g+xbgxRxhAIYPZoRBETCcF62gYKCO8yWgt3BPF0wREREZT953Ri0xz/H1Z9oJiGZUMpkkf/vIXu64pJ4rG6Jli3/RlOYLT7RQKDjCII/z4/gxj/ctr+K2ZTUAJDzH5y6u5x9jbfxmXToKVHIZmtsr+Y+1ae68aMJYvtSSMip9UgYywiCqN3HOIywAZphpmktERERESs9ty2ooi3vc81QbRSAs5slmE9zx2H78yyFdhC882Uah6AiDAs6PE4v5fPiiWt5xatWAYyV9j0+fX4tzAQ+u83AW4PxjW974ZDYGQUofsxD1ahQRERGRUveOU6vIFUK+/kwHRbOe1K84n/rtbswcxcCPAhTPJxbz+avl1QcFKL0SMY87LphIKrafx7bmmVxhvGtp5Si/otI2pkGKiIiIiAxOqdal59ZlNcR9x7+saCMIorqTfBitQ2VhAef7+L7PBy+o4eYl1Yc9VsxzfOq8et5zWoGauEdZXLMp/Y14kBIYmPPxEkkIgyE/znkxjJAw1FRLKdAFUkRERARuXlJNPjD+/dl2ioAF0fdb5/vE4j7vO/fIAUp/U8pVLD+YEQ1SnHMsrU/y9tOqSOdCcEcRcJijKumxuD7BS63qmSIiIiIipeG2ZTWEwDeebiP0oq/THiHvPbfmQJG8HJ8RC1LC0MgUAiaVOd69uPKYOsebGd2B0ZUvEqpnioiIiIiMsmwxJAiMyuTAdKz39qR+fW9tBueMdy6p4J2DzKCkcwG+70jFRqU94Ulj2IMUoye4yBu/2ZjlsS3Z4z5mLgfOcximOnsREREZF5RqPfYe3d7F3c+2k82F3HZmNW9bWInn9QUb71pSzXUNKZznmJQa+LU6DEN+1Jjm3uc6SCU9PnJuDZfPqhjtl3DCGvYgxXcwrcJn6cwU6Vw4LC1OXDVUJh3TK318NXYcEyreExERkfEkWwz5ynNpdrXHsLDI11Z1cPGMFDOqBs6ITK4YvKZkV1fA11Z10NXt0dYd4yvPpblgWuqgGZX27oC4B+UJFc73N+xBSsL3uGxWOZfNKh/uQ4uIiIiIjIpsMaArFxIWi1gYUAh8OgtDLz/oLIQUgmipYucFdOViZIvBgSAlDEO+tbaT77/QQXXK5+8vquecKcmRejknHCXHiYiIiIi8isMxIH/H7KjWgHJRDUS/4zHgiNvSAd98Zj+dGdjV5vEvq1qP95RPKuqTIiIiIlKClGp9ctuXCSgWi1gYEprRlnUUwpC4pzkEUJAiQ6QLpIiIiMjB9nUXAagvO7qv1Q7A+gISzzm0QlQfBSkiIiIiIsfgly938a+r2wH44Fk1vGm+Vu8aLppPEhERERE5SulCwD1P76O1A1o74J6n95EuBGN9WicNzaSIiIiIlCClWpe2zu6Q7lxA2BOYdHvRtsq4lhIeDppJkSG5tfH8AwV8IiIiIuOd86KfQ92X46O3UkRERERESoqCFBERERGRV7HQBiy2ZRjWr1GKc2Bh//HRtgP3ndH/CNZzzL4DgHN2oJVKGNrAvizjnGpSREREREqQ+qSMrfKER125T2smjoUhlakitcm+epPqhM+Eqjh54gBMqC5Sk+j7al2b9KlMxSmGMZzvMaE8oDzRNz8wpcInkYiRD5M432daNcR8zR/0UpAiQ6ILpIiIiIwnZTGfD59Zxd3Pd5IPPN6ztIapFfED+1Mxj0+cX8c9z6VxzvGRs+ooi/XNhUytiPOhc6r59rpukp7x0bNrKIv1BTkzKuN85KKJ/OClPJWxkI+cWzWqr6/UKUgRERERkTF357Pw10thcmqsz6TP+dNTfGtKktCioOTVLplZzrlTkwCkYgev6vXGeZVcObsczxlJ/+D9b1tYyevnBsSdIzHI8cczBSkiIiIiMuYeXGc8vBGuXuRKKlhJHiEFa7DgZOD+wz++QksWD0pBioiIiEgJGo+p1kEwtsFKPKbS9VKhIEWGRMV7IiIiMlpGO1gxi1bmWr8/T2gQBHbkBw0T5zymVnhMq9TX8v70boiIiIiMAxd+Z/S+eA+X0QtWjDCEux7bDTa6tSHO86ioiPE/L67jytkVo/rcpUwVOiIiIiIy7jgcQTgwcAsDDzNG9ScohnR1+3zjufYxeidKk2ZSRERERErQcKdar7iltOstBpvp8f2Rm0GJ+Y5ZNUl2p4f3uEfLAc6LMbGitP//jDYFKTIkqkURERE5MZV6cDKYkQxO+vvkeRO469l2trU5PDc271No0DDB4/blE8bk+UuVghQRERERKQmjFZz0mlUd554rJlIMQsaqYsehTvODUZAiIiIiImPu2iVj1x9FQULpcWZ24i31ME705maeiNO0IiIiIiLHSmGjDMmtjecfKOATERERERlJClJERERERKSkKEgREREREZGSoiBFREREpAQp1Xr0/GQT/OuL0e27X4CfbTn8+K6C8TePG7/dObTj/2cT3PNCdHtnFzyx++CfDW2Hfvz2NHzwCWP7GPd0GU1a3UuGRH1SRERE5GT19B54uRU+eBo8uhVOmww3zjn0+H9c6Vi1xWjugh80Dty3cALcfubAbav3wvYO+PAy+MUW+O5Kw+s3VRAanDsX7rk4WizpS8/Dhv19+7vysKUZbs9ARaJv+6l18PEzjvFFlzgFKSIiIiIy7nQHRsxBzDv0KqrFMFpptXdMPjA+s9Lx+0ajrgZO6dd/cU2z0doO82r6jre5E36309jc5ujoNr65AfKho7YG/uuGvnHv+i2U+X3HmlhmTOvXgb41ZmwB6suNCUk3YFzUaeXko3QvERERERlXgtC47ifw+K7Df8F/eIfjmp9A2NOx47OrHI82GotnOlrbIR8a71sC2aLR3gHvWe741Nl9j9/cAT9cB81tRldXdLsQ9u1/cjf8w7OwaY/RUN23/d2LHKFBPox+CkF0noXAHdgWWjTuZKWZFBEREZESpFTrkeN7jtl18LudcMWMQ4/7/Sswc4Kjd7LlQ6fBTac45lUZX37e8cBaY0VTFMC89QzHzQsHzmxcMQOueIvj9hVRutd/vg6+urbv+HVJ6Mgbbz7NcduigY/tyBtBTzfDTNH1/At+PtroOzhZZ1FAQYoMUW/hni6YIiIicjK4ZAb8cL3BeYf+or/qFePNPbMV61ujAvgX9sCe/eA8Y8F0x+J6+NNO+PHzxk/XwKQ6WDIRbjoFzqjvO1Zg8IMmSBcgnYGPPdXXT31H2rh3o+NvlsKeLHynERqq+85rTwaagGkVMLm8b/uXnodbFsLk1PC9L6VCQYqIiIiIjDtXzID/eAZeah98//P7oDMNV82M7pfHYNUu45xpjsvOclw4xfjWBni+BX72Rmhsc/xuJ6xvNdY0w3sXO4qh8exex+Y22LHX+Go7vL4n6Fm3B8xgyWRYvxf2Z4Gl0WzJqua+82hJG+k0VFTAn7YaM+oGBlVvnTcCb04JUE2KiIiIiIw786qhqhJ+u2Pw/fe9BNMnOhbURPcbquA9yxwGPLoTPrfK8asmo3GP8eln4Hsvwa4M1CYd/3GVY141fHWd46O/MXbtNybVwYN/BtVxqCyHv1jiyBfg8xdAEMIVs6LnmVMF910T/Vw/D7Ld8FcXwNeucpjB/7ow+vEc3Hl+NP5kpJkUERERkRKkVOuRt3yGY0OrURY7OOVrewfceMrAbZ0FaMlGaVqZgmN/exTI9G5L5x0vvWK859ToeG+dB6+f7fj62uh4qX7fvN/QYHxjJXziKchk4PqGqCYlCI3/2u747nrYvse48BR418LoeG9c7Pjo49DaaZwyxVGXHP73pFQoSJEh0QVSRERETjafWW74nuOTfzx4333XHLztloVwy0LHvm744O8hlYKvXwETy6Ig4tm9xodegZpEFHBMKz/0c9clHe8+y/jG07BklqO2J+B45BXH539vnNEAbZUcWHI4WzTevwR+txlSZfDFC6G+7DjfgBKmIEVERERExpWtPf1LIj19TLLGvRsgnYOmVse9G/oK26+c4Wiogn3d8KNN8KN1hhl843WO+mQUkHQHxkPbHYmkUZ0Y+HzpwsH9TNa1wk8ao62Nu4xvb4yWFL56Jix6i2NGufH6n8PLbfDfnzRWboVPX+r458vg408Yf/Yz471nO25eYDh38q3ydcggpRgaIYANstNFxSyHa34jIiIiIlKKmjrgu2v6b4m+8PZua263AfsbqiAE3vkLIxaD6xY5blsEk1LwcofjnT83HFE/lTcs7VuyuBAar/sJZLNwxakDz+HvnoKE7/jODfCrbfDvTxsTy+CNDTC7Ep7b5+joNLpzxhkz4ZOvcVw81UjFHD99A3x+tePrzxiXT3fMrByhN2oMOTM7KAzp6C7y4NZuGttyhOHBUUo85rGwNsFVDSmqE/5JvELz2LrwO9F7v+IWvcMiIiIiY23lXmNpHZT5A7+brWoxuoqO6eUwv3rgYx7fFf174RQj7jka22BTJyysgdmVduCP/hvbYFHtwMeuaIblk+yQEwPNGZhymJSyE9mgQcrND+xiw44sXiwJzg2cTXGAGRYUOb0hxZcvq6cm4Z2U00xjrZSCFBXviYiIiMhoGXQJ4o2v5MGMIJ8lyGUI8v1+chmCfBYLA17YkedXm7M457BB88JERERERESOzqBBigVFBplgGTjGQszg0a1dBGY4JX2JiIiIiMgwGDRISaU8nItSuPr/vHpVAsKA3WlHZy44YlAjIiIiIkN3a+P5B9KtRcabQVf3+vCFk/jKM63kix5hGAJReBKGRpDPH0jsMgtIdwe05YzaMs2knMxUiyIiIiIio2XQIOVtCyuZUObx++3ddBcCnAcYdOQCVm8zgmJPOpgZ3d15WrqLzKmJj/Kpi4iIiIjIyeiQfVKuml3OFTPLol4pPZozAe9u30frfgMrAhCGsKG1yMzKoORK52NetERcZcJTxYyIiIiIyAnisB3nPc8bULQyudwxqRza2nws7JlNCUN+siHNyt25klvhqzIRY3aVz2WzyphfHcdX80kRERE5QSjVWsazwwYprxb3HPNq47y0K4iWHTbDwoDtzTl27C2M1DkeO+ewsMgj28r50qX1zKw6qpcr/ahPioiIiIiMliF/azeiZYYX15fxG7oG7guLWHiIB44x5xybdhf5Y3OetypIEREREREpeUP/1m6Ag0W1Ho7woMSuqOG86xs7zIZ+yEFGlmoEJSIiIiIiBxlykBL1SYHplTEqKhJ0duTAgp59HmUpj8lVMQwIwr6Zl+FStBBwHKodS8/p0ZYukM9Zv74tjkQcltVp9TERERE5cSjVWsazo85/mlDmM6kqTjpdxMKeICUWY3pdnM9dXE9g0B1EQUJvYDMcuoOQYtAXjBzEgZnxT8+0sW1PAStGNTLOj7FwWhlzapTqdTx0gRQRERGR0XJU39zNjDLfMbvKsXl3tO6Xcw5Coz0TMK3CpyLhj8iJDsWOzgL7u0Is7JtucTiunF1G0tfKXiIiIiIiJwLvyEP6OOdwzrGoPoFz1rfClwWkc7C1Mxip8zwiM+M3W7N0Za0vDc3zSaXgkhllB8aIiIiIiEhpO6YcqEW18YHF6GYUi7C5o8iS+sRwnduQGUamEPLwlmxP0GQ4F6V6LZ2eYnq5H9XIDGP6mYiIiMhIUqq1jGdHNZPSa35NnETcwPU+3DBzbGzLR/dGecbC4Vi7v8DWlr5aFJzDc3Dl7DJivjesRfzj0a2N5x8o4BMRERERGUnHFKRMKIP6mjJcT5BiBmYhja0BgYWMdjwQmPHQ1ixBsV+A5HxqKj1eMz01uicjIiIiIiLH5aiDFMNI+h4zqmPg9Xu4BWzdlyWTD0d11sLMaO4q8odtWcKgeGC782KcMzPFlNQxxWEiIiIiIjJGjv4bvIHvecyv9g/MpABYGNKeLrIzPbqNE51zPLGzm/3tQd+SyM4RizmumpU8UNwvIiIiciJRqrWMZ0ddON9bfL6oLomjqy8IMCOwGOtbCzTUxDhyzldUyH688xy5IOQ3W7I9TR6jYMT5MeqqPM6aXDbgnOXYqXhPREREREbLMXc4XDAhTsw3goKjNzgIg4BfvtRBc6ZwyM7wvQwj5hzx44pSHOlCQGNzFgv6lj92ns+FM8qoK+tZ1UtF8yIiIiIiJ4xjDlJmVHjUVPnsyQcQhNFsSlDkxR0FNu7J9cYth+fAO85ZjiKzgQnEywduf6ARHmjsPQmle4mIiIiInCiOKUgxjFTco2FCkr2tAdZTsG5mBEVHGIxeXcqrgxMRERGRk4FSrWU8O7aZFAPfORbU+qx03quK03v/HZ0Uq0Jm84Gnc16MslSMj19Yww3zK0bl+ceL3sI9XTBFREREZKQdU5DSW4i+oDYe9XN0jv5FKH7Mw7kQbJSW/3UOP+aorUpw9dwUl89UbxQRERERkRPVMdekAMyrjuP7RtAza+KcA+dxVkMFp9bHwEapYN1BRdxjbk2SsyfHqU6qN4qIiIiIyInquIKUGZUe5Qmj0O1h9PQo8WMsmZTk3Usqh+UEhyruOVIxBSciIiJyclCqtYxnxxykGEZ1wmd6bZL2dA4XRnUpDseudIHqhB/dV4+Sk4IukCIiIiIyWo5r6sHzHAvrEjjP6yucN+OVtBEqQBERERERkWNwzDMpvQ0ST62L8fMwJFrNyzAL2JsJ2dJeoDIxOulXnoPqhEfCV7qXiIiIiMiJzpkdqTf84a1pyfH+/9pLPpPHLMQ5Rywe47QZCZIxh41C8bznOSZVxrhhbjlnTi4b8ecTEREREZGRc1yF8wBzq2NMqfbZkYtBkMfMKOYLrNk+eg0dnXPEkkmau4wvX5pQAf0IUPGeiIiIiIyW4wpSzIzKhM818yu4d297z6yJYTCqXecBQsvTtN+jKx8qSBEREREROYEdV5DinMMwrp9TzhPbunlpF2ABNrrxSdRt3o9TU+ZIxZxWFRMREREROYEdd7qXwzGt0uf25TXcuz5NU0s3uVxxOM7taE6CijKfvzi1glTcU4AiIiIiJzylWst4dtyF872C0NiZCWnrLpIrhgftO+5n8cB3DofRu5JYaBCGUWP76oTPnOr4qK0oJiIiIjKSFKTIeHbcMym9fM8xu9LHx/jj7iJbO3LEnGPxhATnTyujIn6cwYODTe0FXtibpzUbMKkyzhmT4sysiIGLAhgRERERETnxDUuQ0lsD8otNXXx3bSctXUahWMThSMS7WVDfxYfOrGXpxMQxHT9bDLl3XZpfv9RJV94RBCGxmE9tyvGmBRXcvKgC31eQIiIiIiJyMjjudC/DcDge25nlM4/vJ91VJCwGQO9hHbFkgjmTY/yfyyYxrcI/quOHoXH3c+3cvzFHpqOr57BRypfzPFKVSd59RiW3La06cC4iIiIiInLiGpbC+Wwx5FsvdtKZDrGgyMC4xyjmcmzZ6/Hjxk4+dFbtUR1/3f48P1vfRSZdwML+tS6GBUYmneP7LwRcNrOMeTXx4305cgjKixURGXndgfHM3qH9sW16Ocyv7rv/T2vgoilwwZTo/qoW41dbHX97ppFQtoGInGCGJd1ra0eRpt15LCgw2MSMmREUAp7aVeC9pwWUxY68AlfvrMjju3Jkcw4LB1sxzCAM6OyK8/jOrIIUERE5akFoPLYr+ky6bJrhe32fTyuaIVOEcyYaa/Y7Cv3+VlYRg0W1xoTkwM+z0IyVe2HN/miZl+WTHcvqhnYue7OO2x8aWoLD1Ysdn1ke3d6ehh8/Z8y5pO9c/mWNo/EVoyULvdkNHzvDMadqaOciIjKWhiVI6cgH5LuL9KV4HcwsoCMXkgtCUvGhp3ztTIfQU/MyeGZatG17R/4oz1pERCRa+OXLzxqt7XDXNY6Lp0bb93XD/3jIcA5+/efw6ceNXG7gY52Dt5wOHz8juv9KF3z0Cce2PX2fV9/AWD4P/s9FDAiADudL1zjOnmjszjra87CoJjre1rSjPAYf+f3A8d9thFQ5vKkhSoe+rwk27DDOmgM1CcfG/fDKPqPs7GN5h0RERt+wrNdbk/RJpLzoan0IzvOpiHuUxY6uJqW+7PDHpacGpT41bAuViYjIOHPp7Oiz5MFtfdse3A5msHC6ozrR9zn0sYsdn7vK8eGLHGVl8JPnjT82RzMof/MYbNtjnNkAn7vKccfljvpaeGYT3PPi0FOu8j0zNg9shU8/ZfgOUjHHXavhn9cY/WOdQmg83GS8+3TH/1rluPUR+MoKI5mEjpzjlkXQ3G6851yYWn5cb5OMslsbzz+Qbi0y3gzLN/uGap/5k5JseMUnyGcHHeOcx6Uz4yRjQ4uLegvgL5oS54euSNjTG+XggT7xWMjF01PHevoyBKpFEZGT2Rsa4OcvwIptBudFnz8P9wQs1zYMHHv+ZJhdGd1ubHM8uM54fh+0dDt27zOm1Dm++tq+8QtqHH+3Al7p6u3zdWR3PWPMrnV4zphXBzf+Cu680NjcAu8507G1rW/sl5535HPGcy3GnzbDHa917G9wXD4d3v4r49ZfwdwpjlsXHeObIyIyBoZlJqXM9/nQ2bWkkiF+Ikn/i7BzHn4ixSlTY7zj1CqOpqujYZwzJclVi8rx4gmcN/B0nefjfI+3LKti6cTEIdLBREREDm9ZHVRVQiYDq1uMzrzx0i7D8+DaWYN/tuzJwurd0e3pFfDi/uj2JbMGjptfDT94Hdx14dBnUv7ydMf6XcZzW+HcyY6LZzk+8Rhks3De5IFjZ1XCabMcq3fCzImOq2fC2RPh86uMXHc0ZmercfcL0JrT56SInBiGrT372ZOT3HlZPTPqE3ieh/NjOM/H8+HcOUm+cGk9E8r8IxbM9+dwxH2Pj59Ty1WnVhBPeHh+HC+exPPjJJI+N55eyftPqxq+FyIiIuPSa3pSvn69zfHQDkcYwoJpjprEwM+t/3a/8ZrvGjf8yGjeb0yug+tmGfu6owCg5thagg0wu9L40HkOM5iQhNvPNCZUOOJxWFAzcOzNC+BDp0M+B39/HvxnE7zr58a6PfDJSx0P3wRvWez46Vrj+p/AtvTxn5+IyEgbvo7zDi6ZUc7Zk5M821xgw75uEr7HWVOSnFafIOEfeweT2mSMf7iglrcuKOex7Rn2ZwOmV8a4bFY5p0yIkxhiIaKIiMihvKHBeHAdPLHN2NIRfa68OtULYMlMRypulMccp04w3n4KxDxHQxX8AWNz58DxbTnjMyuhPOb47HlDP5+Ve6O8hLufNS6dCvnAKBSiWpn+mrPwySeMqfWOb28wskU4bz60Zh0/exl+9nL0WqbWOq6Y3ZeqJqVPqdYyng1rtbnvoDrhc9lMn9fOLAPAc0PNwD28hO84a3KSMyYlD3S4H65jy5GpT4qInOzOmQipFLR1QEdnVJx+3eyD60j+fjnMruzd1rfvtdPhvlXwh03GzqWOGRXR9vuaHCuajAXTh34ue7sdTzQZt5zr+Fmj8T+ecrS2Rat13fUnoyzR99z3b4bWdvDrjIq448/mwaZO+Lc/GdctjsZ0FeDRHcYFy/WpKSInhhFZEmukJjYcUSB0+NW+REREjp5zjgsb4JENRtizqtfRpG4tq4OLToEnm+DmB4zlsxw707B5l+GAv1429GP9oBHKyuC2RcaNcxy3PmScNx++cAF87EnY2to39i9OMd4+H2qTjs2d8OzeaHssBn/Xs+Tw7gw8unHozy8iMta0bq+IiEiP62bDIxui26+bc/SP/+IFcE+l42frjCdeimpUysvho8sdF04Z+nHeMBfiniPhw4SkUVXmuP1MiDvj7ovh+l/0jV3b6vheo7Fut5HNRgsAvPt0dnMn6wAAAcFJREFURxDAN9dHYzoKR/9aRETGkoIUERGRHhdPhRW3DD5b/9hNR57F9z3HR0+Hj57u2JaGmItW/jpa86qMcyZFz5f0Hd+/xoh7jod3OO54xDBg2enR2Jc7IJ13vP00uHQanFoL9zVBGMADm6IxxVCrep2IlGot45kzrdsrIiJSEjIF41fbHFfOgPqyg/d3B8aKZse08igYOZTmLGztNM6bHAU6+cB4Zq/jzPqobkVODApSZDxTkCIiIiJSghSkyHim9iIiIiIiIlJSNJMiQ9L715z+Xv2XnVeP0X7t137t137t1/7j3y8yHmkmRURERERESopmUkREREREpKRoJkVEREREREqKghQRERERESkpClJERERERKSkKEgREREREZGSoiBFRERERERKioIUEREREREpKQpSRERERESkpChIERERERGRkqIgRURERERESoqCFBERERERKSkKUkREREREpKQoSBERERERkZKiIEVEREREREqKghQRERERESkpClJERERERKSkKEgREREREZGSoiBFRERERERKioIUEREREREpKQpSRERERESkpChIERERERGRkqIgRURERERESsr/A7vNlD8jug24AAAAAElFTkSuQmCC;" vertex="1" parent="1">
          <mxGeometry x="520" width="264.25" height="130" as="geometry" />
        </mxCell>
        <mxCell id="ao2WHDM3aDO-dXOrU9lV-29" value="&lt;font style=&quot;font-size: 10px;&quot;&gt;MQTT协议&lt;/font&gt;" style="text;html=1;strokeColor=none;fillColor=none;align=center;verticalAlign=middle;whiteSpace=wrap;rounded=0;dashed=1;fontSize=12;" vertex="1" parent="1">
          <mxGeometry x="550" y="40" width="60" as="geometry" />
        </mxCell>
        <mxCell id="ao2WHDM3aDO-dXOrU9lV-30" value="" style="rounded=0;whiteSpace=wrap;html=1;dashed=1;fontSize=10;fillColor=#E6D0DE;" vertex="1" parent="1">
          <mxGeometry x="90" y="530" width="320" height="360" as="geometry" />
        </mxCell>
        <mxCell id="ao2WHDM3aDO-dXOrU9lV-31" value="&lt;font style=&quot;font-size: 16px;&quot;&gt;支持上链的物联网终端设备&lt;/font&gt;" style="text;html=1;strokeColor=none;fillColor=none;align=center;verticalAlign=middle;whiteSpace=wrap;rounded=0;dashed=1;fontSize=10;" vertex="1" parent="1">
          <mxGeometry x="155" y="560" width="150" height="30" as="geometry" />
        </mxCell>
        <mxCell id="ao2WHDM3aDO-dXOrU9lV-32" value="传感器" style="rounded=0;whiteSpace=wrap;html=1;dashed=1;fontSize=16;fillColor=#f5f5f5;fontColor=#333333;strokeColor=#666666;" vertex="1" parent="1">
          <mxGeometry x="100" y="600" width="120" height="30" as="geometry" />
        </mxCell>
        <mxCell id="ao2WHDM3aDO-dXOrU9lV-33" value="物联网应用" style="rounded=0;whiteSpace=wrap;html=1;dashed=1;fontSize=16;fillColor=#f5f5f5;fontColor=#333333;strokeColor=#666666;" vertex="1" parent="1">
          <mxGeometry x="100" y="640" width="140" height="30" as="geometry" />
        </mxCell>
        <mxCell id="ao2WHDM3aDO-dXOrU9lV-34" value="区块链运程过程调用报文或者数据指纹报文组装的单元" style="rounded=0;whiteSpace=wrap;html=1;dashed=1;fontSize=16;fillColor=#f5f5f5;fontColor=#333333;strokeColor=#666666;" vertex="1" parent="1">
          <mxGeometry x="100" y="680" width="230" height="40" as="geometry" />
        </mxCell>
        <mxCell id="ao2WHDM3aDO-dXOrU9lV-36" value="" style="rounded=0;whiteSpace=wrap;html=1;dashed=1;fontSize=16;fillColor=#f5f5f5;fontColor=#333333;strokeColor=#666666;" vertex="1" parent="1">
          <mxGeometry x="100" y="730" width="230" height="140" as="geometry" />
        </mxCell>
        <mxCell id="ao2WHDM3aDO-dXOrU9lV-37" value="安全容器单元" style="text;html=1;strokeColor=none;fillColor=none;align=center;verticalAlign=middle;whiteSpace=wrap;rounded=0;dashed=1;fontSize=16;" vertex="1" parent="1">
          <mxGeometry x="162.5" y="740" width="105" height="30" as="geometry" />
        </mxCell>
        <mxCell id="ao2WHDM3aDO-dXOrU9lV-38" value="密码算法" style="rounded=0;whiteSpace=wrap;html=1;dashed=1;fontSize=16;fillColor=#dae8fc;strokeColor=#6c8ebf;" vertex="1" parent="1">
          <mxGeometry x="150" y="770" width="132" height="20" as="geometry" />
        </mxCell>
        <mxCell id="ao2WHDM3aDO-dXOrU9lV-39" value="密钥管理" style="rounded=0;whiteSpace=wrap;html=1;dashed=1;fontSize=16;fillColor=#dae8fc;strokeColor=#6c8ebf;" vertex="1" parent="1">
          <mxGeometry x="149" y="800" width="132" height="20" as="geometry" />
        </mxCell>
        <mxCell id="ao2WHDM3aDO-dXOrU9lV-40" value="信任根" style="rounded=0;whiteSpace=wrap;html=1;dashed=1;fontSize=16;fillColor=#dae8fc;strokeColor=#6c8ebf;" vertex="1" parent="1">
          <mxGeometry x="149" y="830" width="132" height="20" as="geometry" />
        </mxCell>
        <mxCell id="ao2WHDM3aDO-dXOrU9lV-41" value="通&lt;br&gt;信&lt;br&gt;单&lt;br&gt;元" style="rounded=0;whiteSpace=wrap;html=1;dashed=1;fontSize=16;fillColor=#d5e8d4;strokeColor=#82b366;" vertex="1" parent="1">
          <mxGeometry x="354" y="600" width="46" height="260" as="geometry" />
        </mxCell>
        <mxCell id="ao2WHDM3aDO-dXOrU9lV-42" value="物联网设备" style="rounded=0;whiteSpace=wrap;html=1;dashed=1;fontSize=16;fillColor=#E6D0DE;" vertex="1" parent="1">
          <mxGeometry x="29" y="1010" width="101" height="40" as="geometry" />
        </mxCell>
      </root>
    </mxGraphModel>
  </diagram>
</mxfile>
